<?xml version="1.0" encoding="utf-8" standalone="no"?>
<!DOCTYPE svg PUBLIC "-//W3C//DTD SVG 1.1//EN"
  "http://www.w3.org/Graphics/SVG/1.1/DTD/svg11.dtd">
<svg xmlns:xlink="http://www.w3.org/1999/xlink" width="1850.923625pt" height="578.553875pt" viewBox="0 0 1850.923625 578.553875" xmlns="http://www.w3.org/2000/svg" version="1.1">
 <metadata>
  <rdf:RDF xmlns:dc="http://purl.org/dc/elements/1.1/" xmlns:cc="http://creativecommons.org/ns#" xmlns:rdf="http://www.w3.org/1999/02/22-rdf-syntax-ns#">
   <cc:Work>
    <dc:type rdf:resource="http://purl.org/dc/dcmitype/StillImage"/>
    <dc:date>2025-07-14T16:54:48.842606</dc:date>
    <dc:format>image/svg+xml</dc:format>
    <dc:creator>
     <cc:Agent>
      <dc:title>Matplotlib v3.7.5, https://matplotlib.org/</dc:title>
     </cc:Agent>
    </dc:creator>
   </cc:Work>
  </rdf:RDF>
 </metadata>
 <defs>
  <style type="text/css">*{stroke-linejoin: round; stroke-linecap: butt}</style>
 </defs>
 <g id="figure_1">
  <g id="patch_1">
   <path d="M -0 578.553875 
L 1850.923625 578.553875 
L 1850.923625 0 
L -0 0 
z
" style="fill: #ffffff"/>
  </g>
  <g id="axes_1">
   <g id="patch_2">
    <path d="M 66.475625 519.41325 
L 639.781431 519.41325 
L 639.781431 31.54125 
L 66.475625 31.54125 
z
" style="fill: #ffffff"/>
   </g>
   <g id="matplotlib.axis_1">
    <g id="xtick_1">
     <g id="line2d_1">
      <defs>
       <path id="m8c65dd9481" d="M 0 0 
L 0 3.5 
" style="stroke: #000000; stroke-width: 0.8"/>
      </defs>
      <g>
       <use xlink:href="#m8c65dd9481" x="147.396779" y="519.41325" style="stroke: #000000; stroke-width: 0.8"/>
      </g>
     </g>
     <g id="text_1">
      <!-- 2~3.9 -->
      <g transform="translate(117.650373 540.090437) scale(0.18 -0.18)">
       <defs>
        <path id="DejaVuSans-Bold-32" d="M 1844 884 
L 3897 884 
L 3897 0 
L 506 0 
L 506 884 
L 2209 2388 
Q 2438 2594 2547 2791 
Q 2656 2988 2656 3200 
Q 2656 3528 2436 3728 
Q 2216 3928 1850 3928 
Q 1569 3928 1234 3808 
Q 900 3688 519 3450 
L 519 4475 
Q 925 4609 1322 4679 
Q 1719 4750 2100 4750 
Q 2938 4750 3402 4381 
Q 3866 4013 3866 3353 
Q 3866 2972 3669 2642 
Q 3472 2313 2841 1759 
L 1844 884 
z
" transform="scale(0.015625)"/>
        <path id="DejaVuSans-Bold-7e" d="M 4684 2656 
L 4684 1894 
Q 4353 1644 4073 1536 
Q 3794 1428 3494 1428 
Q 3159 1428 2713 1609 
Q 2669 1628 2644 1638 
Q 2622 1647 2575 1666 
Q 2091 1856 1797 1856 
Q 1522 1856 1253 1736 
Q 984 1616 678 1356 
L 678 2119 
Q 1013 2369 1291 2476 
Q 1569 2584 1869 2584 
Q 2203 2584 2650 2403 
Q 2697 2384 2719 2375 
Q 2741 2366 2788 2347 
Q 3272 2156 3566 2156 
Q 3834 2156 4098 2273 
Q 4363 2391 4684 2656 
z
" transform="scale(0.015625)"/>
        <path id="DejaVuSans-Bold-33" d="M 2981 2516 
Q 3453 2394 3698 2092 
Q 3944 1791 3944 1325 
Q 3944 631 3412 270 
Q 2881 -91 1863 -91 
Q 1503 -91 1142 -33 
Q 781 25 428 141 
L 428 1069 
Q 766 900 1098 814 
Q 1431 728 1753 728 
Q 2231 728 2486 893 
Q 2741 1059 2741 1369 
Q 2741 1688 2480 1852 
Q 2219 2016 1709 2016 
L 1228 2016 
L 1228 2791 
L 1734 2791 
Q 2188 2791 2409 2933 
Q 2631 3075 2631 3366 
Q 2631 3634 2415 3781 
Q 2200 3928 1806 3928 
Q 1516 3928 1219 3862 
Q 922 3797 628 3669 
L 628 4550 
Q 984 4650 1334 4700 
Q 1684 4750 2022 4750 
Q 2931 4750 3382 4451 
Q 3834 4153 3834 3553 
Q 3834 3144 3618 2883 
Q 3403 2622 2981 2516 
z
" transform="scale(0.015625)"/>
        <path id="DejaVuSans-Bold-2e" d="M 653 1209 
L 1778 1209 
L 1778 0 
L 653 0 
L 653 1209 
z
" transform="scale(0.015625)"/>
        <path id="DejaVuSans-Bold-39" d="M 641 103 
L 641 966 
Q 928 831 1190 764 
Q 1453 697 1709 697 
Q 2247 697 2547 995 
Q 2847 1294 2900 1881 
Q 2688 1725 2447 1647 
Q 2206 1569 1925 1569 
Q 1209 1569 770 1986 
Q 331 2403 331 3084 
Q 331 3838 820 4291 
Q 1309 4744 2131 4744 
Q 3044 4744 3544 4128 
Q 4044 3513 4044 2388 
Q 4044 1231 3459 570 
Q 2875 -91 1856 -91 
Q 1528 -91 1228 -42 
Q 928 6 641 103 
z
M 2125 2350 
Q 2441 2350 2600 2554 
Q 2759 2759 2759 3169 
Q 2759 3575 2600 3781 
Q 2441 3988 2125 3988 
Q 1809 3988 1650 3781 
Q 1491 3575 1491 3169 
Q 1491 2759 1650 2554 
Q 1809 2350 2125 2350 
z
" transform="scale(0.015625)"/>
       </defs>
       <use xlink:href="#DejaVuSans-Bold-32"/>
       <use xlink:href="#DejaVuSans-Bold-7e" x="69.580078"/>
       <use xlink:href="#DejaVuSans-Bold-33" x="153.369141"/>
       <use xlink:href="#DejaVuSans-Bold-2e" x="222.949219"/>
       <use xlink:href="#DejaVuSans-Bold-39" x="260.9375"/>
      </g>
     </g>
    </g>
    <g id="xtick_2">
     <g id="line2d_2">
      <g>
       <use xlink:href="#m8c65dd9481" x="284.551279" y="519.41325" style="stroke: #000000; stroke-width: 0.8"/>
      </g>
     </g>
     <g id="text_2">
      <!-- 4~5.9 -->
      <g transform="translate(254.804872 540.090437) scale(0.18 -0.18)">
       <defs>
        <path id="DejaVuSans-Bold-34" d="M 2356 3675 
L 1038 1722 
L 2356 1722 
L 2356 3675 
z
M 2156 4666 
L 3494 4666 
L 3494 1722 
L 4159 1722 
L 4159 850 
L 3494 850 
L 3494 0 
L 2356 0 
L 2356 850 
L 288 850 
L 288 1881 
L 2156 4666 
z
" transform="scale(0.015625)"/>
        <path id="DejaVuSans-Bold-35" d="M 678 4666 
L 3669 4666 
L 3669 3781 
L 1638 3781 
L 1638 3059 
Q 1775 3097 1914 3117 
Q 2053 3138 2203 3138 
Q 3056 3138 3531 2711 
Q 4006 2284 4006 1522 
Q 4006 766 3489 337 
Q 2972 -91 2053 -91 
Q 1656 -91 1267 -14 
Q 878 63 494 219 
L 494 1166 
Q 875 947 1217 837 
Q 1559 728 1863 728 
Q 2300 728 2551 942 
Q 2803 1156 2803 1522 
Q 2803 1891 2551 2103 
Q 2300 2316 1863 2316 
Q 1603 2316 1309 2248 
Q 1016 2181 678 2041 
L 678 4666 
z
" transform="scale(0.015625)"/>
       </defs>
       <use xlink:href="#DejaVuSans-Bold-34"/>
       <use xlink:href="#DejaVuSans-Bold-7e" x="69.580078"/>
       <use xlink:href="#DejaVuSans-Bold-35" x="153.369141"/>
       <use xlink:href="#DejaVuSans-Bold-2e" x="222.949219"/>
       <use xlink:href="#DejaVuSans-Bold-39" x="260.9375"/>
      </g>
     </g>
    </g>
    <g id="xtick_3">
     <g id="line2d_3">
      <g>
       <use xlink:href="#m8c65dd9481" x="421.705778" y="519.41325" style="stroke: #000000; stroke-width: 0.8"/>
      </g>
     </g>
     <g id="text_3">
      <!-- 6~7.9 -->
      <g transform="translate(391.959372 540.090437) scale(0.18 -0.18)">
       <defs>
        <path id="DejaVuSans-Bold-36" d="M 2316 2303 
Q 2000 2303 1842 2098 
Q 1684 1894 1684 1484 
Q 1684 1075 1842 870 
Q 2000 666 2316 666 
Q 2634 666 2792 870 
Q 2950 1075 2950 1484 
Q 2950 1894 2792 2098 
Q 2634 2303 2316 2303 
z
M 3803 4544 
L 3803 3681 
Q 3506 3822 3243 3889 
Q 2981 3956 2731 3956 
Q 2194 3956 1894 3657 
Q 1594 3359 1544 2772 
Q 1750 2925 1990 3001 
Q 2231 3078 2516 3078 
Q 3231 3078 3670 2659 
Q 4109 2241 4109 1563 
Q 4109 813 3618 361 
Q 3128 -91 2303 -91 
Q 1394 -91 895 523 
Q 397 1138 397 2266 
Q 397 3422 980 4083 
Q 1563 4744 2578 4744 
Q 2900 4744 3203 4694 
Q 3506 4644 3803 4544 
z
" transform="scale(0.015625)"/>
        <path id="DejaVuSans-Bold-37" d="M 428 4666 
L 3944 4666 
L 3944 3988 
L 2125 0 
L 953 0 
L 2675 3781 
L 428 3781 
L 428 4666 
z
" transform="scale(0.015625)"/>
       </defs>
       <use xlink:href="#DejaVuSans-Bold-36"/>
       <use xlink:href="#DejaVuSans-Bold-7e" x="69.580078"/>
       <use xlink:href="#DejaVuSans-Bold-37" x="153.369141"/>
       <use xlink:href="#DejaVuSans-Bold-2e" x="222.949219"/>
       <use xlink:href="#DejaVuSans-Bold-39" x="260.9375"/>
      </g>
     </g>
    </g>
    <g id="xtick_4">
     <g id="line2d_4">
      <g>
       <use xlink:href="#m8c65dd9481" x="558.860277" y="519.41325" style="stroke: #000000; stroke-width: 0.8"/>
      </g>
     </g>
     <g id="text_4">
      <!-- 8~10 -->
      <g transform="translate(532.532464 540.090437) scale(0.18 -0.18)">
       <defs>
        <path id="DejaVuSans-Bold-38" d="M 2228 2088 
Q 1891 2088 1709 1903 
Q 1528 1719 1528 1375 
Q 1528 1031 1709 848 
Q 1891 666 2228 666 
Q 2563 666 2741 848 
Q 2919 1031 2919 1375 
Q 2919 1722 2741 1905 
Q 2563 2088 2228 2088 
z
M 1350 2484 
Q 925 2613 709 2878 
Q 494 3144 494 3541 
Q 494 4131 934 4440 
Q 1375 4750 2228 4750 
Q 3075 4750 3515 4442 
Q 3956 4134 3956 3541 
Q 3956 3144 3739 2878 
Q 3522 2613 3097 2484 
Q 3572 2353 3814 2058 
Q 4056 1763 4056 1313 
Q 4056 619 3595 264 
Q 3134 -91 2228 -91 
Q 1319 -91 855 264 
Q 391 619 391 1313 
Q 391 1763 633 2058 
Q 875 2353 1350 2484 
z
M 1631 3419 
Q 1631 3141 1786 2991 
Q 1941 2841 2228 2841 
Q 2509 2841 2662 2991 
Q 2816 3141 2816 3419 
Q 2816 3697 2662 3845 
Q 2509 3994 2228 3994 
Q 1941 3994 1786 3844 
Q 1631 3694 1631 3419 
z
" transform="scale(0.015625)"/>
        <path id="DejaVuSans-Bold-31" d="M 750 831 
L 1813 831 
L 1813 3847 
L 722 3622 
L 722 4441 
L 1806 4666 
L 2950 4666 
L 2950 831 
L 4013 831 
L 4013 0 
L 750 0 
L 750 831 
z
" transform="scale(0.015625)"/>
        <path id="DejaVuSans-Bold-30" d="M 2944 2338 
Q 2944 3213 2780 3570 
Q 2616 3928 2228 3928 
Q 1841 3928 1675 3570 
Q 1509 3213 1509 2338 
Q 1509 1453 1675 1090 
Q 1841 728 2228 728 
Q 2613 728 2778 1090 
Q 2944 1453 2944 2338 
z
M 4147 2328 
Q 4147 1169 3647 539 
Q 3147 -91 2228 -91 
Q 1306 -91 806 539 
Q 306 1169 306 2328 
Q 306 3491 806 4120 
Q 1306 4750 2228 4750 
Q 3147 4750 3647 4120 
Q 4147 3491 4147 2328 
z
" transform="scale(0.015625)"/>
       </defs>
       <use xlink:href="#DejaVuSans-Bold-38"/>
       <use xlink:href="#DejaVuSans-Bold-7e" x="69.580078"/>
       <use xlink:href="#DejaVuSans-Bold-31" x="153.369141"/>
       <use xlink:href="#DejaVuSans-Bold-30" x="222.949219"/>
      </g>
     </g>
    </g>
    <g id="text_5">
     <!-- Average Degree $\langle k \rangle$ Group -->
     <g transform="translate(178.168528 566.073875) scale(0.24 -0.24)">
      <defs>
       <path id="DejaVuSans-Bold-41" d="M 3419 850 
L 1538 850 
L 1241 0 
L 31 0 
L 1759 4666 
L 3194 4666 
L 4922 0 
L 3713 0 
L 3419 850 
z
M 1838 1716 
L 3116 1716 
L 2478 3572 
L 1838 1716 
z
" transform="scale(0.015625)"/>
       <path id="DejaVuSans-Bold-76" d="M 97 3500 
L 1216 3500 
L 2088 1081 
L 2956 3500 
L 4078 3500 
L 2700 0 
L 1472 0 
L 97 3500 
z
" transform="scale(0.015625)"/>
       <path id="DejaVuSans-Bold-65" d="M 4031 1759 
L 4031 1441 
L 1416 1441 
Q 1456 1047 1700 850 
Q 1944 653 2381 653 
Q 2734 653 3104 758 
Q 3475 863 3866 1075 
L 3866 213 
Q 3469 63 3072 -14 
Q 2675 -91 2278 -91 
Q 1328 -91 801 392 
Q 275 875 275 1747 
Q 275 2603 792 3093 
Q 1309 3584 2216 3584 
Q 3041 3584 3536 3087 
Q 4031 2591 4031 1759 
z
M 2881 2131 
Q 2881 2450 2695 2645 
Q 2509 2841 2209 2841 
Q 1884 2841 1681 2658 
Q 1478 2475 1428 2131 
L 2881 2131 
z
" transform="scale(0.015625)"/>
       <path id="DejaVuSans-Bold-72" d="M 3138 2547 
Q 2991 2616 2845 2648 
Q 2700 2681 2553 2681 
Q 2122 2681 1889 2404 
Q 1656 2128 1656 1613 
L 1656 0 
L 538 0 
L 538 3500 
L 1656 3500 
L 1656 2925 
Q 1872 3269 2151 3426 
Q 2431 3584 2822 3584 
Q 2878 3584 2943 3579 
Q 3009 3575 3134 3559 
L 3138 2547 
z
" transform="scale(0.015625)"/>
       <path id="DejaVuSans-Bold-61" d="M 2106 1575 
Q 1756 1575 1579 1456 
Q 1403 1338 1403 1106 
Q 1403 894 1545 773 
Q 1688 653 1941 653 
Q 2256 653 2472 879 
Q 2688 1106 2688 1447 
L 2688 1575 
L 2106 1575 
z
M 3816 1997 
L 3816 0 
L 2688 0 
L 2688 519 
Q 2463 200 2181 54 
Q 1900 -91 1497 -91 
Q 953 -91 614 226 
Q 275 544 275 1050 
Q 275 1666 698 1953 
Q 1122 2241 2028 2241 
L 2688 2241 
L 2688 2328 
Q 2688 2594 2478 2717 
Q 2269 2841 1825 2841 
Q 1466 2841 1156 2769 
Q 847 2697 581 2553 
L 581 3406 
Q 941 3494 1303 3539 
Q 1666 3584 2028 3584 
Q 2975 3584 3395 3211 
Q 3816 2838 3816 1997 
z
" transform="scale(0.015625)"/>
       <path id="DejaVuSans-Bold-67" d="M 2919 594 
Q 2688 288 2409 144 
Q 2131 0 1766 0 
Q 1125 0 706 504 
Q 288 1009 288 1791 
Q 288 2575 706 3076 
Q 1125 3578 1766 3578 
Q 2131 3578 2409 3434 
Q 2688 3291 2919 2981 
L 2919 3500 
L 4044 3500 
L 4044 353 
Q 4044 -491 3511 -936 
Q 2978 -1381 1966 -1381 
Q 1638 -1381 1331 -1331 
Q 1025 -1281 716 -1178 
L 716 -306 
Q 1009 -475 1290 -558 
Q 1572 -641 1856 -641 
Q 2406 -641 2662 -400 
Q 2919 -159 2919 353 
L 2919 594 
z
M 2181 2772 
Q 1834 2772 1640 2515 
Q 1447 2259 1447 1791 
Q 1447 1309 1634 1061 
Q 1822 813 2181 813 
Q 2531 813 2725 1069 
Q 2919 1325 2919 1791 
Q 2919 2259 2725 2515 
Q 2531 2772 2181 2772 
z
" transform="scale(0.015625)"/>
       <path id="DejaVuSans-Bold-20" transform="scale(0.015625)"/>
       <path id="DejaVuSans-Bold-44" d="M 1791 3756 
L 1791 909 
L 2222 909 
Q 2959 909 3348 1275 
Q 3738 1641 3738 2338 
Q 3738 3031 3350 3393 
Q 2963 3756 2222 3756 
L 1791 3756 
z
M 588 4666 
L 1856 4666 
Q 2919 4666 3439 4514 
Q 3959 4363 4331 4000 
Q 4659 3684 4818 3271 
Q 4978 2859 4978 2338 
Q 4978 1809 4818 1395 
Q 4659 981 4331 666 
Q 3956 303 3431 151 
Q 2906 0 1856 0 
L 588 0 
L 588 4666 
z
" transform="scale(0.015625)"/>
       <path id="DejaVuSans-27e8" d="M 572 2006 
L 1453 4856 
L 1984 4856 
L 1103 2006 
L 1984 -844 
L 1453 -844 
L 572 2006 
z
" transform="scale(0.015625)"/>
       <path id="DejaVuSans-Oblique-6b" d="M 1172 4863 
L 1747 4863 
L 1197 2028 
L 3169 3500 
L 3916 3500 
L 1716 1825 
L 3322 0 
L 2625 0 
L 1131 1709 
L 800 0 
L 225 0 
L 1172 4863 
z
" transform="scale(0.015625)"/>
       <path id="DejaVuSans-27e9" d="M 1925 2006 
L 1044 -844 
L 513 -844 
L 1394 2006 
L 513 4856 
L 1044 4856 
L 1925 2006 
z
" transform="scale(0.015625)"/>
       <path id="DejaVuSans-Bold-47" d="M 4781 347 
Q 4331 128 3847 18 
Q 3363 -91 2847 -91 
Q 1681 -91 1000 561 
Q 319 1213 319 2328 
Q 319 3456 1012 4103 
Q 1706 4750 2913 4750 
Q 3378 4750 3804 4662 
Q 4231 4575 4609 4403 
L 4609 3438 
Q 4219 3659 3833 3768 
Q 3447 3878 3059 3878 
Q 2341 3878 1952 3476 
Q 1563 3075 1563 2328 
Q 1563 1588 1938 1184 
Q 2313 781 3003 781 
Q 3191 781 3352 804 
Q 3513 828 3641 878 
L 3641 1784 
L 2906 1784 
L 2906 2591 
L 4781 2591 
L 4781 347 
z
" transform="scale(0.015625)"/>
       <path id="DejaVuSans-Bold-6f" d="M 2203 2784 
Q 1831 2784 1636 2517 
Q 1441 2250 1441 1747 
Q 1441 1244 1636 976 
Q 1831 709 2203 709 
Q 2569 709 2762 976 
Q 2956 1244 2956 1747 
Q 2956 2250 2762 2517 
Q 2569 2784 2203 2784 
z
M 2203 3584 
Q 3106 3584 3614 3096 
Q 4122 2609 4122 1747 
Q 4122 884 3614 396 
Q 3106 -91 2203 -91 
Q 1297 -91 786 396 
Q 275 884 275 1747 
Q 275 2609 786 3096 
Q 1297 3584 2203 3584 
z
" transform="scale(0.015625)"/>
       <path id="DejaVuSans-Bold-75" d="M 500 1363 
L 500 3500 
L 1625 3500 
L 1625 3150 
Q 1625 2866 1622 2436 
Q 1619 2006 1619 1863 
Q 1619 1441 1641 1255 
Q 1663 1069 1716 984 
Q 1784 875 1895 815 
Q 2006 756 2150 756 
Q 2500 756 2700 1025 
Q 2900 1294 2900 1772 
L 2900 3500 
L 4019 3500 
L 4019 0 
L 2900 0 
L 2900 506 
Q 2647 200 2364 54 
Q 2081 -91 1741 -91 
Q 1134 -91 817 281 
Q 500 653 500 1363 
z
" transform="scale(0.015625)"/>
       <path id="DejaVuSans-Bold-70" d="M 1656 506 
L 1656 -1331 
L 538 -1331 
L 538 3500 
L 1656 3500 
L 1656 2988 
Q 1888 3294 2169 3439 
Q 2450 3584 2816 3584 
Q 3463 3584 3878 3070 
Q 4294 2556 4294 1747 
Q 4294 938 3878 423 
Q 3463 -91 2816 -91 
Q 2450 -91 2169 54 
Q 1888 200 1656 506 
z
M 2400 2772 
Q 2041 2772 1848 2508 
Q 1656 2244 1656 1747 
Q 1656 1250 1848 986 
Q 2041 722 2400 722 
Q 2759 722 2948 984 
Q 3138 1247 3138 1747 
Q 3138 2247 2948 2509 
Q 2759 2772 2400 2772 
z
" transform="scale(0.015625)"/>
      </defs>
      <use xlink:href="#DejaVuSans-Bold-41" transform="translate(0 0.015625)"/>
      <use xlink:href="#DejaVuSans-Bold-76" transform="translate(77.392578 0.015625)"/>
      <use xlink:href="#DejaVuSans-Bold-65" transform="translate(142.578125 0.015625)"/>
      <use xlink:href="#DejaVuSans-Bold-72" transform="translate(210.400391 0.015625)"/>
      <use xlink:href="#DejaVuSans-Bold-61" transform="translate(259.716797 0.015625)"/>
      <use xlink:href="#DejaVuSans-Bold-67" transform="translate(327.197266 0.015625)"/>
      <use xlink:href="#DejaVuSans-Bold-65" transform="translate(398.779297 0.015625)"/>
      <use xlink:href="#DejaVuSans-Bold-20" transform="translate(466.601562 0.015625)"/>
      <use xlink:href="#DejaVuSans-Bold-44" transform="translate(501.416016 0.015625)"/>
      <use xlink:href="#DejaVuSans-Bold-65" transform="translate(584.423828 0.015625)"/>
      <use xlink:href="#DejaVuSans-Bold-67" transform="translate(652.246094 0.015625)"/>
      <use xlink:href="#DejaVuSans-Bold-72" transform="translate(723.828125 0.015625)"/>
      <use xlink:href="#DejaVuSans-Bold-65" transform="translate(773.144531 0.015625)"/>
      <use xlink:href="#DejaVuSans-Bold-65" transform="translate(840.966797 0.015625)"/>
      <use xlink:href="#DejaVuSans-Bold-20" transform="translate(908.789062 0.015625)"/>
      <use xlink:href="#DejaVuSans-27e8" transform="translate(943.603516 0.015625)"/>
      <use xlink:href="#DejaVuSans-Oblique-6b" transform="translate(982.617188 0.015625)"/>
      <use xlink:href="#DejaVuSans-27e9" transform="translate(1040.527344 0.015625)"/>
      <use xlink:href="#DejaVuSans-Bold-20" transform="translate(1079.541016 0.015625)"/>
      <use xlink:href="#DejaVuSans-Bold-47" transform="translate(1114.355469 0.015625)"/>
      <use xlink:href="#DejaVuSans-Bold-72" transform="translate(1196.435547 0.015625)"/>
      <use xlink:href="#DejaVuSans-Bold-6f" transform="translate(1245.751953 0.015625)"/>
      <use xlink:href="#DejaVuSans-Bold-75" transform="translate(1314.453125 0.015625)"/>
      <use xlink:href="#DejaVuSans-Bold-70" transform="translate(1385.644531 0.015625)"/>
     </g>
    </g>
   </g>
   <g id="matplotlib.axis_2">
    <g id="ytick_1">
     <g id="line2d_5">
      <path d="M 66.475625 497.23725 
L 639.781431 497.23725 
" clip-path="url(#p5df71dbaf9)" style="fill: none; stroke-dasharray: 2.59,1.12; stroke-dashoffset: 0; stroke: #b0b0b0; stroke-opacity: 0.6; stroke-width: 0.7"/>
     </g>
     <g id="line2d_6">
      <defs>
       <path id="mdbf76c682c" d="M 0 0 
L -3.5 0 
" style="stroke: #000000; stroke-width: 0.8"/>
      </defs>
      <g>
       <use xlink:href="#mdbf76c682c" x="66.475625" y="497.23725" style="stroke: #000000; stroke-width: 0.8"/>
      </g>
     </g>
     <g id="text_6">
      <!-- 0 -->
      <g transform="translate(46.951563 504.075844) scale(0.18 -0.18)">
       <use xlink:href="#DejaVuSans-Bold-30"/>
      </g>
     </g>
    </g>
    <g id="ytick_2">
     <g id="line2d_7">
      <path d="M 66.475625 432.958989 
L 639.781431 432.958989 
" clip-path="url(#p5df71dbaf9)" style="fill: none; stroke-dasharray: 2.59,1.12; stroke-dashoffset: 0; stroke: #b0b0b0; stroke-opacity: 0.6; stroke-width: 0.7"/>
     </g>
     <g id="line2d_8">
      <g>
       <use xlink:href="#mdbf76c682c" x="66.475625" y="432.958989" style="stroke: #000000; stroke-width: 0.8"/>
      </g>
     </g>
     <g id="text_7">
      <!-- 10 -->
      <g transform="translate(34.4275 439.797583) scale(0.18 -0.18)">
       <use xlink:href="#DejaVuSans-Bold-31"/>
       <use xlink:href="#DejaVuSans-Bold-30" x="69.580078"/>
      </g>
     </g>
    </g>
    <g id="ytick_3">
     <g id="line2d_9">
      <path d="M 66.475625 368.680728 
L 639.781431 368.680728 
" clip-path="url(#p5df71dbaf9)" style="fill: none; stroke-dasharray: 2.59,1.12; stroke-dashoffset: 0; stroke: #b0b0b0; stroke-opacity: 0.6; stroke-width: 0.7"/>
     </g>
     <g id="line2d_10">
      <g>
       <use xlink:href="#mdbf76c682c" x="66.475625" y="368.680728" style="stroke: #000000; stroke-width: 0.8"/>
      </g>
     </g>
     <g id="text_8">
      <!-- 20 -->
      <g transform="translate(34.4275 375.519322) scale(0.18 -0.18)">
       <use xlink:href="#DejaVuSans-Bold-32"/>
       <use xlink:href="#DejaVuSans-Bold-30" x="69.580078"/>
      </g>
     </g>
    </g>
    <g id="ytick_4">
     <g id="line2d_11">
      <path d="M 66.475625 304.402467 
L 639.781431 304.402467 
" clip-path="url(#p5df71dbaf9)" style="fill: none; stroke-dasharray: 2.59,1.12; stroke-dashoffset: 0; stroke: #b0b0b0; stroke-opacity: 0.6; stroke-width: 0.7"/>
     </g>
     <g id="line2d_12">
      <g>
       <use xlink:href="#mdbf76c682c" x="66.475625" y="304.402467" style="stroke: #000000; stroke-width: 0.8"/>
      </g>
     </g>
     <g id="text_9">
      <!-- 30 -->
      <g transform="translate(34.4275 311.241061) scale(0.18 -0.18)">
       <use xlink:href="#DejaVuSans-Bold-33"/>
       <use xlink:href="#DejaVuSans-Bold-30" x="69.580078"/>
      </g>
     </g>
    </g>
    <g id="ytick_5">
     <g id="line2d_13">
      <path d="M 66.475625 240.124207 
L 639.781431 240.124207 
" clip-path="url(#p5df71dbaf9)" style="fill: none; stroke-dasharray: 2.59,1.12; stroke-dashoffset: 0; stroke: #b0b0b0; stroke-opacity: 0.6; stroke-width: 0.7"/>
     </g>
     <g id="line2d_14">
      <g>
       <use xlink:href="#mdbf76c682c" x="66.475625" y="240.124207" style="stroke: #000000; stroke-width: 0.8"/>
      </g>
     </g>
     <g id="text_10">
      <!-- 40 -->
      <g transform="translate(34.4275 246.9628) scale(0.18 -0.18)">
       <use xlink:href="#DejaVuSans-Bold-34"/>
       <use xlink:href="#DejaVuSans-Bold-30" x="69.580078"/>
      </g>
     </g>
    </g>
    <g id="ytick_6">
     <g id="line2d_15">
      <path d="M 66.475625 175.845946 
L 639.781431 175.845946 
" clip-path="url(#p5df71dbaf9)" style="fill: none; stroke-dasharray: 2.59,1.12; stroke-dashoffset: 0; stroke: #b0b0b0; stroke-opacity: 0.6; stroke-width: 0.7"/>
     </g>
     <g id="line2d_16">
      <g>
       <use xlink:href="#mdbf76c682c" x="66.475625" y="175.845946" style="stroke: #000000; stroke-width: 0.8"/>
      </g>
     </g>
     <g id="text_11">
      <!-- 50 -->
      <g transform="translate(34.4275 182.684539) scale(0.18 -0.18)">
       <use xlink:href="#DejaVuSans-Bold-35"/>
       <use xlink:href="#DejaVuSans-Bold-30" x="69.580078"/>
      </g>
     </g>
    </g>
    <g id="ytick_7">
     <g id="line2d_17">
      <path d="M 66.475625 111.567685 
L 639.781431 111.567685 
" clip-path="url(#p5df71dbaf9)" style="fill: none; stroke-dasharray: 2.59,1.12; stroke-dashoffset: 0; stroke: #b0b0b0; stroke-opacity: 0.6; stroke-width: 0.7"/>
     </g>
     <g id="line2d_18">
      <g>
       <use xlink:href="#mdbf76c682c" x="66.475625" y="111.567685" style="stroke: #000000; stroke-width: 0.8"/>
      </g>
     </g>
     <g id="text_12">
      <!-- 60 -->
      <g transform="translate(34.4275 118.406279) scale(0.18 -0.18)">
       <use xlink:href="#DejaVuSans-Bold-36"/>
       <use xlink:href="#DejaVuSans-Bold-30" x="69.580078"/>
      </g>
     </g>
    </g>
    <g id="ytick_8">
     <g id="line2d_19">
      <path d="M 66.475625 47.289424 
L 639.781431 47.289424 
" clip-path="url(#p5df71dbaf9)" style="fill: none; stroke-dasharray: 2.59,1.12; stroke-dashoffset: 0; stroke: #b0b0b0; stroke-opacity: 0.6; stroke-width: 0.7"/>
     </g>
     <g id="line2d_20">
      <g>
       <use xlink:href="#mdbf76c682c" x="66.475625" y="47.289424" style="stroke: #000000; stroke-width: 0.8"/>
      </g>
     </g>
     <g id="text_13">
      <!-- 70 -->
      <g transform="translate(34.4275 54.128018) scale(0.18 -0.18)">
       <use xlink:href="#DejaVuSans-Bold-37"/>
       <use xlink:href="#DejaVuSans-Bold-30" x="69.580078"/>
      </g>
     </g>
    </g>
    <g id="text_14">
     <!-- UDS Optimization Count -->
     <g transform="translate(25.43625 450.971625) rotate(-90) scale(0.24 -0.24)">
      <defs>
       <path id="DejaVuSans-Bold-55" d="M 588 4666 
L 1791 4666 
L 1791 1869 
Q 1791 1291 1980 1042 
Q 2169 794 2597 794 
Q 3028 794 3217 1042 
Q 3406 1291 3406 1869 
L 3406 4666 
L 4609 4666 
L 4609 1869 
Q 4609 878 4112 393 
Q 3616 -91 2597 -91 
Q 1581 -91 1084 393 
Q 588 878 588 1869 
L 588 4666 
z
" transform="scale(0.015625)"/>
       <path id="DejaVuSans-Bold-4d" d="M 588 4666 
L 2119 4666 
L 3181 2169 
L 4250 4666 
L 5778 4666 
L 5778 0 
L 4641 0 
L 4641 3413 
L 3566 897 
L 2803 897 
L 1728 3413 
L 1728 0 
L 588 0 
L 588 4666 
z
" transform="scale(0.015625)"/>
       <path id="DejaVuSans-Bold-53" d="M 3834 4519 
L 3834 3531 
Q 3450 3703 3084 3790 
Q 2719 3878 2394 3878 
Q 1963 3878 1756 3759 
Q 1550 3641 1550 3391 
Q 1550 3203 1689 3098 
Q 1828 2994 2194 2919 
L 2706 2816 
Q 3484 2659 3812 2340 
Q 4141 2022 4141 1434 
Q 4141 663 3683 286 
Q 3225 -91 2284 -91 
Q 1841 -91 1394 -6 
Q 947 78 500 244 
L 500 1259 
Q 947 1022 1364 901 
Q 1781 781 2169 781 
Q 2563 781 2772 912 
Q 2981 1044 2981 1288 
Q 2981 1506 2839 1625 
Q 2697 1744 2272 1838 
L 1806 1941 
Q 1106 2091 782 2419 
Q 459 2747 459 3303 
Q 459 4000 909 4375 
Q 1359 4750 2203 4750 
Q 2588 4750 2994 4692 
Q 3400 4634 3834 4519 
z
" transform="scale(0.015625)"/>
       <path id="DejaVuSans-Bold-4f" d="M 2719 3878 
Q 2169 3878 1866 3472 
Q 1563 3066 1563 2328 
Q 1563 1594 1866 1187 
Q 2169 781 2719 781 
Q 3272 781 3575 1187 
Q 3878 1594 3878 2328 
Q 3878 3066 3575 3472 
Q 3272 3878 2719 3878 
z
M 2719 4750 
Q 3844 4750 4481 4106 
Q 5119 3463 5119 2328 
Q 5119 1197 4481 553 
Q 3844 -91 2719 -91 
Q 1597 -91 958 553 
Q 319 1197 319 2328 
Q 319 3463 958 4106 
Q 1597 4750 2719 4750 
z
" transform="scale(0.015625)"/>
       <path id="DejaVuSans-Bold-74" d="M 1759 4494 
L 1759 3500 
L 2913 3500 
L 2913 2700 
L 1759 2700 
L 1759 1216 
Q 1759 972 1856 886 
Q 1953 800 2241 800 
L 2816 800 
L 2816 0 
L 1856 0 
Q 1194 0 917 276 
Q 641 553 641 1216 
L 641 2700 
L 84 2700 
L 84 3500 
L 641 3500 
L 641 4494 
L 1759 4494 
z
" transform="scale(0.015625)"/>
       <path id="DejaVuSans-Bold-69" d="M 538 3500 
L 1656 3500 
L 1656 0 
L 538 0 
L 538 3500 
z
M 538 4863 
L 1656 4863 
L 1656 3950 
L 538 3950 
L 538 4863 
z
" transform="scale(0.015625)"/>
       <path id="DejaVuSans-Bold-6d" d="M 3781 2919 
Q 3994 3244 4286 3414 
Q 4578 3584 4928 3584 
Q 5531 3584 5847 3212 
Q 6163 2841 6163 2131 
L 6163 0 
L 5038 0 
L 5038 1825 
Q 5041 1866 5042 1909 
Q 5044 1953 5044 2034 
Q 5044 2406 4934 2573 
Q 4825 2741 4581 2741 
Q 4263 2741 4089 2478 
Q 3916 2216 3909 1719 
L 3909 0 
L 2784 0 
L 2784 1825 
Q 2784 2406 2684 2573 
Q 2584 2741 2328 2741 
Q 2006 2741 1831 2477 
Q 1656 2213 1656 1722 
L 1656 0 
L 531 0 
L 531 3500 
L 1656 3500 
L 1656 2988 
Q 1863 3284 2130 3434 
Q 2397 3584 2719 3584 
Q 3081 3584 3359 3409 
Q 3638 3234 3781 2919 
z
" transform="scale(0.015625)"/>
       <path id="DejaVuSans-Bold-7a" d="M 366 3500 
L 3419 3500 
L 3419 2719 
L 1575 800 
L 3419 800 
L 3419 0 
L 288 0 
L 288 781 
L 2131 2700 
L 366 2700 
L 366 3500 
z
" transform="scale(0.015625)"/>
       <path id="DejaVuSans-Bold-6e" d="M 4056 2131 
L 4056 0 
L 2931 0 
L 2931 347 
L 2931 1631 
Q 2931 2084 2911 2256 
Q 2891 2428 2841 2509 
Q 2775 2619 2662 2680 
Q 2550 2741 2406 2741 
Q 2056 2741 1856 2470 
Q 1656 2200 1656 1722 
L 1656 0 
L 538 0 
L 538 3500 
L 1656 3500 
L 1656 2988 
Q 1909 3294 2193 3439 
Q 2478 3584 2822 3584 
Q 3428 3584 3742 3212 
Q 4056 2841 4056 2131 
z
" transform="scale(0.015625)"/>
       <path id="DejaVuSans-Bold-43" d="M 4288 256 
Q 3956 84 3597 -3 
Q 3238 -91 2847 -91 
Q 1681 -91 1000 561 
Q 319 1213 319 2328 
Q 319 3447 1000 4098 
Q 1681 4750 2847 4750 
Q 3238 4750 3597 4662 
Q 3956 4575 4288 4403 
L 4288 3438 
Q 3953 3666 3628 3772 
Q 3303 3878 2944 3878 
Q 2300 3878 1931 3465 
Q 1563 3053 1563 2328 
Q 1563 1606 1931 1193 
Q 2300 781 2944 781 
Q 3303 781 3628 887 
Q 3953 994 4288 1222 
L 4288 256 
z
" transform="scale(0.015625)"/>
      </defs>
      <use xlink:href="#DejaVuSans-Bold-55"/>
      <use xlink:href="#DejaVuSans-Bold-4d" x="81.201172"/>
      <use xlink:href="#DejaVuSans-Bold-44" x="180.712891"/>
      <use xlink:href="#DejaVuSans-Bold-53" x="263.720703"/>
      <use xlink:href="#DejaVuSans-Bold-20" x="335.742188"/>
      <use xlink:href="#DejaVuSans-Bold-4f" x="370.556641"/>
      <use xlink:href="#DejaVuSans-Bold-70" x="455.566406"/>
      <use xlink:href="#DejaVuSans-Bold-74" x="527.148438"/>
      <use xlink:href="#DejaVuSans-Bold-69" x="574.951172"/>
      <use xlink:href="#DejaVuSans-Bold-6d" x="609.228516"/>
      <use xlink:href="#DejaVuSans-Bold-69" x="713.427734"/>
      <use xlink:href="#DejaVuSans-Bold-7a" x="747.705078"/>
      <use xlink:href="#DejaVuSans-Bold-61" x="805.908203"/>
      <use xlink:href="#DejaVuSans-Bold-74" x="873.388672"/>
      <use xlink:href="#DejaVuSans-Bold-69" x="921.191406"/>
      <use xlink:href="#DejaVuSans-Bold-6f" x="955.46875"/>
      <use xlink:href="#DejaVuSans-Bold-6e" x="1024.169922"/>
      <use xlink:href="#DejaVuSans-Bold-20" x="1095.361328"/>
      <use xlink:href="#DejaVuSans-Bold-43" x="1130.175781"/>
      <use xlink:href="#DejaVuSans-Bold-6f" x="1203.564453"/>
      <use xlink:href="#DejaVuSans-Bold-75" x="1272.265625"/>
      <use xlink:href="#DejaVuSans-Bold-6e" x="1343.457031"/>
      <use xlink:href="#DejaVuSans-Bold-74" x="1414.648438"/>
     </g>
    </g>
   </g>
   <g id="patch_3">
    <path d="M 92.53498 220.840728 
L 202.258579 220.840728 
L 202.258579 182.273772 
L 92.53498 182.273772 
L 92.53498 220.840728 
z
" clip-path="url(#p5df71dbaf9)" style="fill: #124d82; stroke: #000000; stroke-linejoin: miter"/>
   </g>
   <g id="line2d_21">
    <path d="M 147.396779 220.840728 
L 147.396779 278.691163 
" clip-path="url(#p5df71dbaf9)" style="fill: none; stroke: #000000"/>
   </g>
   <g id="line2d_22">
    <path d="M 147.396779 182.273772 
L 147.396779 124.423337 
" clip-path="url(#p5df71dbaf9)" style="fill: none; stroke: #000000"/>
   </g>
   <g id="line2d_23">
    <path d="M 119.96588 278.691163 
L 174.827679 278.691163 
" clip-path="url(#p5df71dbaf9)" style="fill: none; stroke: #000000; stroke-linecap: square"/>
   </g>
   <g id="line2d_24">
    <path d="M 119.96588 124.423337 
L 174.827679 124.423337 
" clip-path="url(#p5df71dbaf9)" style="fill: none; stroke: #000000; stroke-linecap: square"/>
   </g>
   <g id="line2d_25">
    <defs>
     <path id="m5c6ad6be00" d="M 0 1 
C 0.265203 1 0.51958 0.894634 0.707107 0.707107 
C 0.894634 0.51958 1 0.265203 1 0 
C 1 -0.265203 0.894634 -0.51958 0.707107 -0.707107 
C 0.51958 -0.894634 0.265203 -1 0 -1 
C -0.265203 -1 -0.51958 -0.894634 -0.707107 -0.707107 
C -0.894634 -0.51958 -1 -0.265203 -1 0 
C -1 0.265203 -0.894634 0.51958 -0.707107 0.707107 
C -0.51958 0.894634 -0.265203 1 0 1 
z
" style="stroke: #000000"/>
    </defs>
    <g clip-path="url(#p5df71dbaf9)">
     <use xlink:href="#m5c6ad6be00" x="147.396779" y="291.546815" style="stroke: #000000"/>
     <use xlink:href="#m5c6ad6be00" x="147.396779" y="117.995511" style="stroke: #000000"/>
     <use xlink:href="#m5c6ad6be00" x="147.396779" y="117.995511" style="stroke: #000000"/>
     <use xlink:href="#m5c6ad6be00" x="147.396779" y="117.995511" style="stroke: #000000"/>
     <use xlink:href="#m5c6ad6be00" x="147.396779" y="117.995511" style="stroke: #000000"/>
     <use xlink:href="#m5c6ad6be00" x="147.396779" y="111.567685" style="stroke: #000000"/>
     <use xlink:href="#m5c6ad6be00" x="147.396779" y="117.995511" style="stroke: #000000"/>
    </g>
   </g>
   <g id="patch_4">
    <path d="M 229.689479 354.21812 
L 339.413078 354.21812 
L 339.413078 246.552033 
L 229.689479 246.552033 
L 229.689479 354.21812 
z
" clip-path="url(#p5df71dbaf9)" style="fill: #124d82; stroke: #000000; stroke-linejoin: miter"/>
   </g>
   <g id="line2d_26">
    <path d="M 284.551279 354.21812 
L 284.551279 439.386815 
" clip-path="url(#p5df71dbaf9)" style="fill: none; stroke: #000000"/>
   </g>
   <g id="line2d_27">
    <path d="M 284.551279 246.552033 
L 284.551279 175.845946 
" clip-path="url(#p5df71dbaf9)" style="fill: none; stroke: #000000"/>
   </g>
   <g id="line2d_28">
    <path d="M 257.120379 439.386815 
L 311.982178 439.386815 
" clip-path="url(#p5df71dbaf9)" style="fill: none; stroke: #000000; stroke-linecap: square"/>
   </g>
   <g id="line2d_29">
    <path d="M 257.120379 175.845946 
L 311.982178 175.845946 
" clip-path="url(#p5df71dbaf9)" style="fill: none; stroke: #000000; stroke-linecap: square"/>
   </g>
   <g id="line2d_30"/>
   <g id="patch_5">
    <path d="M 366.843978 484.381598 
L 476.567577 484.381598 
L 476.567577 432.958989 
L 366.843978 432.958989 
L 366.843978 484.381598 
z
" clip-path="url(#p5df71dbaf9)" style="fill: #124d82; stroke: #000000; stroke-linejoin: miter"/>
   </g>
   <g id="line2d_31">
    <path d="M 421.705778 484.381598 
L 421.705778 497.23725 
" clip-path="url(#p5df71dbaf9)" style="fill: none; stroke: #000000"/>
   </g>
   <g id="line2d_32">
    <path d="M 421.705778 432.958989 
L 421.705778 368.680728 
" clip-path="url(#p5df71dbaf9)" style="fill: none; stroke: #000000"/>
   </g>
   <g id="line2d_33">
    <path d="M 394.274878 497.23725 
L 449.136678 497.23725 
" clip-path="url(#p5df71dbaf9)" style="fill: none; stroke: #000000; stroke-linecap: square"/>
   </g>
   <g id="line2d_34">
    <path d="M 394.274878 368.680728 
L 449.136678 368.680728 
" clip-path="url(#p5df71dbaf9)" style="fill: none; stroke: #000000; stroke-linecap: square"/>
   </g>
   <g id="line2d_35"/>
   <g id="patch_6">
    <path d="M 503.998477 497.23725 
L 613.722077 497.23725 
L 613.722077 458.670293 
L 503.998477 458.670293 
L 503.998477 497.23725 
z
" clip-path="url(#p5df71dbaf9)" style="fill: #124d82; stroke: #000000; stroke-linejoin: miter"/>
   </g>
   <g id="line2d_36">
    <path d="M 558.860277 497.23725 
L 558.860277 497.23725 
" clip-path="url(#p5df71dbaf9)" style="fill: none; stroke: #000000"/>
   </g>
   <g id="line2d_37">
    <path d="M 558.860277 458.670293 
L 558.860277 445.814641 
" clip-path="url(#p5df71dbaf9)" style="fill: none; stroke: #000000"/>
   </g>
   <g id="line2d_38">
    <path d="M 531.429377 497.23725 
L 586.291177 497.23725 
" clip-path="url(#p5df71dbaf9)" style="fill: none; stroke: #000000; stroke-linecap: square"/>
   </g>
   <g id="line2d_39">
    <path d="M 531.429377 445.814641 
L 586.291177 445.814641 
" clip-path="url(#p5df71dbaf9)" style="fill: none; stroke: #000000; stroke-linecap: square"/>
   </g>
   <g id="line2d_40"/>
   <g id="line2d_41">
    <path d="M 92.53498 201.55725 
L 202.258579 201.55725 
" clip-path="url(#p5df71dbaf9)" style="fill: none; stroke: #c80723; stroke-width: 2"/>
   </g>
   <g id="line2d_42">
    <path d="M 229.689479 278.691163 
L 339.413078 278.691163 
" clip-path="url(#p5df71dbaf9)" style="fill: none; stroke: #c80723; stroke-width: 2"/>
   </g>
   <g id="line2d_43">
    <path d="M 366.843978 458.670293 
L 476.567577 458.670293 
" clip-path="url(#p5df71dbaf9)" style="fill: none; stroke: #c80723; stroke-width: 2"/>
   </g>
   <g id="line2d_44">
    <path d="M 503.998477 487.595511 
L 613.722077 487.595511 
" clip-path="url(#p5df71dbaf9)" style="fill: none; stroke: #c80723; stroke-width: 2"/>
   </g>
   <g id="patch_7">
    <path d="M 66.475625 519.41325 
L 66.475625 31.54125 
" style="fill: none; stroke: #000000; stroke-linejoin: miter; stroke-linecap: square"/>
   </g>
   <g id="patch_8">
    <path d="M 639.781431 519.41325 
L 639.781431 31.54125 
" style="fill: none; stroke: #000000; stroke-linejoin: miter; stroke-linecap: square"/>
   </g>
   <g id="patch_9">
    <path d="M 66.475625 519.41325 
L 639.781431 519.41325 
" style="fill: none; stroke: #000000; stroke-linejoin: miter; stroke-linecap: square"/>
   </g>
   <g id="patch_10">
    <path d="M 66.475625 31.54125 
L 639.781431 31.54125 
" style="fill: none; stroke: #000000; stroke-linejoin: miter; stroke-linecap: square"/>
   </g>
   <g id="text_15">
    <!-- ER Network | N=1000 -->
    <g transform="translate(208.132903 25.54125) scale(0.24 -0.24)">
     <defs>
      <path id="DejaVuSans-Bold-45" d="M 588 4666 
L 3834 4666 
L 3834 3756 
L 1791 3756 
L 1791 2888 
L 3713 2888 
L 3713 1978 
L 1791 1978 
L 1791 909 
L 3903 909 
L 3903 0 
L 588 0 
L 588 4666 
z
" transform="scale(0.015625)"/>
      <path id="DejaVuSans-Bold-52" d="M 2297 2597 
Q 2675 2597 2839 2737 
Q 3003 2878 3003 3200 
Q 3003 3519 2839 3656 
Q 2675 3794 2297 3794 
L 1791 3794 
L 1791 2597 
L 2297 2597 
z
M 1791 1766 
L 1791 0 
L 588 0 
L 588 4666 
L 2425 4666 
Q 3347 4666 3776 4356 
Q 4206 4047 4206 3378 
Q 4206 2916 3982 2619 
Q 3759 2322 3309 2181 
Q 3556 2125 3751 1926 
Q 3947 1728 4147 1325 
L 4800 0 
L 3519 0 
L 2950 1159 
Q 2778 1509 2601 1637 
Q 2425 1766 2131 1766 
L 1791 1766 
z
" transform="scale(0.015625)"/>
      <path id="DejaVuSans-Bold-4e" d="M 588 4666 
L 1931 4666 
L 3628 1466 
L 3628 4666 
L 4769 4666 
L 4769 0 
L 3425 0 
L 1728 3200 
L 1728 0 
L 588 0 
L 588 4666 
z
" transform="scale(0.015625)"/>
      <path id="DejaVuSans-Bold-77" d="M 225 3500 
L 1313 3500 
L 1900 1088 
L 2491 3500 
L 3425 3500 
L 4013 1113 
L 4603 3500 
L 5691 3500 
L 4769 0 
L 3547 0 
L 2956 2406 
L 2369 0 
L 1147 0 
L 225 3500 
z
" transform="scale(0.015625)"/>
      <path id="DejaVuSans-Bold-6b" d="M 538 4863 
L 1656 4863 
L 1656 2216 
L 2944 3500 
L 4244 3500 
L 2534 1894 
L 4378 0 
L 3022 0 
L 1656 1459 
L 1656 0 
L 538 0 
L 538 4863 
z
" transform="scale(0.015625)"/>
      <path id="DejaVuSans-Bold-7c" d="M 1522 4891 
L 1522 -1509 
L 813 -1509 
L 813 4891 
L 1522 4891 
z
" transform="scale(0.015625)"/>
      <path id="DejaVuSans-Bold-3d" d="M 678 3084 
L 4684 3084 
L 4684 2350 
L 678 2350 
L 678 3084 
z
M 678 1663 
L 4684 1663 
L 4684 922 
L 678 922 
L 678 1663 
z
" transform="scale(0.015625)"/>
     </defs>
     <use xlink:href="#DejaVuSans-Bold-45"/>
     <use xlink:href="#DejaVuSans-Bold-52" x="68.310547"/>
     <use xlink:href="#DejaVuSans-Bold-20" x="145.3125"/>
     <use xlink:href="#DejaVuSans-Bold-4e" x="180.126953"/>
     <use xlink:href="#DejaVuSans-Bold-65" x="263.818359"/>
     <use xlink:href="#DejaVuSans-Bold-74" x="331.640625"/>
     <use xlink:href="#DejaVuSans-Bold-77" x="379.443359"/>
     <use xlink:href="#DejaVuSans-Bold-6f" x="471.826172"/>
     <use xlink:href="#DejaVuSans-Bold-72" x="540.527344"/>
     <use xlink:href="#DejaVuSans-Bold-6b" x="589.84375"/>
     <use xlink:href="#DejaVuSans-Bold-20" x="656.347656"/>
     <use xlink:href="#DejaVuSans-Bold-7c" x="691.162109"/>
     <use xlink:href="#DejaVuSans-Bold-20" x="727.685547"/>
     <use xlink:href="#DejaVuSans-Bold-4e" x="762.5"/>
     <use xlink:href="#DejaVuSans-Bold-3d" x="846.191406"/>
     <use xlink:href="#DejaVuSans-Bold-31" x="929.980469"/>
     <use xlink:href="#DejaVuSans-Bold-30" x="999.560547"/>
     <use xlink:href="#DejaVuSans-Bold-30" x="1069.140625"/>
     <use xlink:href="#DejaVuSans-Bold-30" x="1138.720703"/>
    </g>
   </g>
   <g id="line2d_45">
    <path d="M 147.396779 417.692902 
L 284.551279 447.839407 
L 421.705778 483.963789 
L 558.860277 494.115163 
" clip-path="url(#p5df71dbaf9)" style="fill: none; stroke: #ffbd00; stroke-width: 1.5; stroke-linecap: square"/>
    <defs>
     <path id="mf4583209a1" d="M -4 4 
L 4 4 
L 4 -4 
L -4 -4 
z
" style="stroke: #ffbd00; stroke-linejoin: miter"/>
    </defs>
    <g clip-path="url(#p5df71dbaf9)">
     <use xlink:href="#mf4583209a1" x="147.396779" y="417.692902" style="fill: #ffbd00; stroke: #ffbd00; stroke-linejoin: miter"/>
     <use xlink:href="#mf4583209a1" x="284.551279" y="447.839407" style="fill: #ffbd00; stroke: #ffbd00; stroke-linejoin: miter"/>
     <use xlink:href="#mf4583209a1" x="421.705778" y="483.963789" style="fill: #ffbd00; stroke: #ffbd00; stroke-linejoin: miter"/>
     <use xlink:href="#mf4583209a1" x="558.860277" y="494.115163" style="fill: #ffbd00; stroke: #ffbd00; stroke-linejoin: miter"/>
    </g>
   </g>
   <g id="line2d_46">
    <path d="M 147.396779 120.277389 
L 284.551279 250.34445 
L 421.705778 443.179233 
L 558.860277 475.841772 
" clip-path="url(#p5df71dbaf9)" style="fill: none; stroke: #d55b00; stroke-width: 1.5; stroke-linecap: square"/>
    <defs>
     <path id="m74b0928446" d="M 0 -4 
L -4 4 
L 4 4 
z
" style="stroke: #d55b00; stroke-linejoin: miter"/>
    </defs>
    <g clip-path="url(#p5df71dbaf9)">
     <use xlink:href="#m74b0928446" x="147.396779" y="120.277389" style="fill: #d55b00; stroke: #d55b00; stroke-linejoin: miter"/>
     <use xlink:href="#m74b0928446" x="284.551279" y="250.34445" style="fill: #d55b00; stroke: #d55b00; stroke-linejoin: miter"/>
     <use xlink:href="#m74b0928446" x="421.705778" y="443.179233" style="fill: #d55b00; stroke: #d55b00; stroke-linejoin: miter"/>
     <use xlink:href="#m74b0928446" x="558.860277" y="475.841772" style="fill: #d55b00; stroke: #d55b00; stroke-linejoin: miter"/>
    </g>
   </g>
  </g>
  <g id="axes_2">
   <g id="patch_11">
    <path d="M 668.446722 519.41325 
L 1241.752528 519.41325 
L 1241.752528 31.54125 
L 668.446722 31.54125 
z
" style="fill: #ffffff"/>
   </g>
   <g id="matplotlib.axis_3">
    <g id="xtick_5">
     <g id="line2d_47">
      <g>
       <use xlink:href="#m8c65dd9481" x="749.367876" y="519.41325" style="stroke: #000000; stroke-width: 0.8"/>
      </g>
     </g>
     <g id="text_16">
      <!-- 2~3.9 -->
      <g transform="translate(719.62147 540.090437) scale(0.18 -0.18)">
       <use xlink:href="#DejaVuSans-Bold-32"/>
       <use xlink:href="#DejaVuSans-Bold-7e" x="69.580078"/>
       <use xlink:href="#DejaVuSans-Bold-33" x="153.369141"/>
       <use xlink:href="#DejaVuSans-Bold-2e" x="222.949219"/>
       <use xlink:href="#DejaVuSans-Bold-39" x="260.9375"/>
      </g>
     </g>
    </g>
    <g id="xtick_6">
     <g id="line2d_48">
      <g>
       <use xlink:href="#m8c65dd9481" x="886.522375" y="519.41325" style="stroke: #000000; stroke-width: 0.8"/>
      </g>
     </g>
     <g id="text_17">
      <!-- 4~5.9 -->
      <g transform="translate(856.775969 540.090437) scale(0.18 -0.18)">
       <use xlink:href="#DejaVuSans-Bold-34"/>
       <use xlink:href="#DejaVuSans-Bold-7e" x="69.580078"/>
       <use xlink:href="#DejaVuSans-Bold-35" x="153.369141"/>
       <use xlink:href="#DejaVuSans-Bold-2e" x="222.949219"/>
       <use xlink:href="#DejaVuSans-Bold-39" x="260.9375"/>
      </g>
     </g>
    </g>
    <g id="xtick_7">
     <g id="line2d_49">
      <g>
       <use xlink:href="#m8c65dd9481" x="1023.676875" y="519.41325" style="stroke: #000000; stroke-width: 0.8"/>
      </g>
     </g>
     <g id="text_18">
      <!-- 6~7.9 -->
      <g transform="translate(993.930468 540.090437) scale(0.18 -0.18)">
       <use xlink:href="#DejaVuSans-Bold-36"/>
       <use xlink:href="#DejaVuSans-Bold-7e" x="69.580078"/>
       <use xlink:href="#DejaVuSans-Bold-37" x="153.369141"/>
       <use xlink:href="#DejaVuSans-Bold-2e" x="222.949219"/>
       <use xlink:href="#DejaVuSans-Bold-39" x="260.9375"/>
      </g>
     </g>
    </g>
    <g id="xtick_8">
     <g id="line2d_50">
      <g>
       <use xlink:href="#m8c65dd9481" x="1160.831374" y="519.41325" style="stroke: #000000; stroke-width: 0.8"/>
      </g>
     </g>
     <g id="text_19">
      <!-- 8~10 -->
      <g transform="translate(1134.503561 540.090437) scale(0.18 -0.18)">
       <use xlink:href="#DejaVuSans-Bold-38"/>
       <use xlink:href="#DejaVuSans-Bold-7e" x="69.580078"/>
       <use xlink:href="#DejaVuSans-Bold-31" x="153.369141"/>
       <use xlink:href="#DejaVuSans-Bold-30" x="222.949219"/>
      </g>
     </g>
    </g>
    <g id="text_20">
     <!-- Average Degree $\langle k \rangle$ Group -->
     <g transform="translate(780.139625 566.073875) scale(0.24 -0.24)">
      <use xlink:href="#DejaVuSans-Bold-41" transform="translate(0 0.015625)"/>
      <use xlink:href="#DejaVuSans-Bold-76" transform="translate(77.392578 0.015625)"/>
      <use xlink:href="#DejaVuSans-Bold-65" transform="translate(142.578125 0.015625)"/>
      <use xlink:href="#DejaVuSans-Bold-72" transform="translate(210.400391 0.015625)"/>
      <use xlink:href="#DejaVuSans-Bold-61" transform="translate(259.716797 0.015625)"/>
      <use xlink:href="#DejaVuSans-Bold-67" transform="translate(327.197266 0.015625)"/>
      <use xlink:href="#DejaVuSans-Bold-65" transform="translate(398.779297 0.015625)"/>
      <use xlink:href="#DejaVuSans-Bold-20" transform="translate(466.601562 0.015625)"/>
      <use xlink:href="#DejaVuSans-Bold-44" transform="translate(501.416016 0.015625)"/>
      <use xlink:href="#DejaVuSans-Bold-65" transform="translate(584.423828 0.015625)"/>
      <use xlink:href="#DejaVuSans-Bold-67" transform="translate(652.246094 0.015625)"/>
      <use xlink:href="#DejaVuSans-Bold-72" transform="translate(723.828125 0.015625)"/>
      <use xlink:href="#DejaVuSans-Bold-65" transform="translate(773.144531 0.015625)"/>
      <use xlink:href="#DejaVuSans-Bold-65" transform="translate(840.966797 0.015625)"/>
      <use xlink:href="#DejaVuSans-Bold-20" transform="translate(908.789062 0.015625)"/>
      <use xlink:href="#DejaVuSans-27e8" transform="translate(943.603516 0.015625)"/>
      <use xlink:href="#DejaVuSans-Oblique-6b" transform="translate(982.617188 0.015625)"/>
      <use xlink:href="#DejaVuSans-27e9" transform="translate(1040.527344 0.015625)"/>
      <use xlink:href="#DejaVuSans-Bold-20" transform="translate(1079.541016 0.015625)"/>
      <use xlink:href="#DejaVuSans-Bold-47" transform="translate(1114.355469 0.015625)"/>
      <use xlink:href="#DejaVuSans-Bold-72" transform="translate(1196.435547 0.015625)"/>
      <use xlink:href="#DejaVuSans-Bold-6f" transform="translate(1245.751953 0.015625)"/>
      <use xlink:href="#DejaVuSans-Bold-75" transform="translate(1314.453125 0.015625)"/>
      <use xlink:href="#DejaVuSans-Bold-70" transform="translate(1385.644531 0.015625)"/>
     </g>
    </g>
   </g>
   <g id="matplotlib.axis_4">
    <g id="ytick_9">
     <g id="line2d_51">
      <path d="M 668.446722 497.23725 
L 1241.752528 497.23725 
" clip-path="url(#p8247452f19)" style="fill: none; stroke-dasharray: 2.59,1.12; stroke-dashoffset: 0; stroke: #b0b0b0; stroke-opacity: 0.6; stroke-width: 0.7"/>
     </g>
     <g id="line2d_52">
      <g>
       <use xlink:href="#mdbf76c682c" x="668.446722" y="497.23725" style="stroke: #000000; stroke-width: 0.8"/>
      </g>
     </g>
    </g>
    <g id="ytick_10">
     <g id="line2d_53">
      <path d="M 668.446722 432.958989 
L 1241.752528 432.958989 
" clip-path="url(#p8247452f19)" style="fill: none; stroke-dasharray: 2.59,1.12; stroke-dashoffset: 0; stroke: #b0b0b0; stroke-opacity: 0.6; stroke-width: 0.7"/>
     </g>
     <g id="line2d_54">
      <g>
       <use xlink:href="#mdbf76c682c" x="668.446722" y="432.958989" style="stroke: #000000; stroke-width: 0.8"/>
      </g>
     </g>
    </g>
    <g id="ytick_11">
     <g id="line2d_55">
      <path d="M 668.446722 368.680728 
L 1241.752528 368.680728 
" clip-path="url(#p8247452f19)" style="fill: none; stroke-dasharray: 2.59,1.12; stroke-dashoffset: 0; stroke: #b0b0b0; stroke-opacity: 0.6; stroke-width: 0.7"/>
     </g>
     <g id="line2d_56">
      <g>
       <use xlink:href="#mdbf76c682c" x="668.446722" y="368.680728" style="stroke: #000000; stroke-width: 0.8"/>
      </g>
     </g>
    </g>
    <g id="ytick_12">
     <g id="line2d_57">
      <path d="M 668.446722 304.402467 
L 1241.752528 304.402467 
" clip-path="url(#p8247452f19)" style="fill: none; stroke-dasharray: 2.59,1.12; stroke-dashoffset: 0; stroke: #b0b0b0; stroke-opacity: 0.6; stroke-width: 0.7"/>
     </g>
     <g id="line2d_58">
      <g>
       <use xlink:href="#mdbf76c682c" x="668.446722" y="304.402467" style="stroke: #000000; stroke-width: 0.8"/>
      </g>
     </g>
    </g>
    <g id="ytick_13">
     <g id="line2d_59">
      <path d="M 668.446722 240.124207 
L 1241.752528 240.124207 
" clip-path="url(#p8247452f19)" style="fill: none; stroke-dasharray: 2.59,1.12; stroke-dashoffset: 0; stroke: #b0b0b0; stroke-opacity: 0.6; stroke-width: 0.7"/>
     </g>
     <g id="line2d_60">
      <g>
       <use xlink:href="#mdbf76c682c" x="668.446722" y="240.124207" style="stroke: #000000; stroke-width: 0.8"/>
      </g>
     </g>
    </g>
    <g id="ytick_14">
     <g id="line2d_61">
      <path d="M 668.446722 175.845946 
L 1241.752528 175.845946 
" clip-path="url(#p8247452f19)" style="fill: none; stroke-dasharray: 2.59,1.12; stroke-dashoffset: 0; stroke: #b0b0b0; stroke-opacity: 0.6; stroke-width: 0.7"/>
     </g>
     <g id="line2d_62">
      <g>
       <use xlink:href="#mdbf76c682c" x="668.446722" y="175.845946" style="stroke: #000000; stroke-width: 0.8"/>
      </g>
     </g>
    </g>
    <g id="ytick_15">
     <g id="line2d_63">
      <path d="M 668.446722 111.567685 
L 1241.752528 111.567685 
" clip-path="url(#p8247452f19)" style="fill: none; stroke-dasharray: 2.59,1.12; stroke-dashoffset: 0; stroke: #b0b0b0; stroke-opacity: 0.6; stroke-width: 0.7"/>
     </g>
     <g id="line2d_64">
      <g>
       <use xlink:href="#mdbf76c682c" x="668.446722" y="111.567685" style="stroke: #000000; stroke-width: 0.8"/>
      </g>
     </g>
    </g>
    <g id="ytick_16">
     <g id="line2d_65">
      <path d="M 668.446722 47.289424 
L 1241.752528 47.289424 
" clip-path="url(#p8247452f19)" style="fill: none; stroke-dasharray: 2.59,1.12; stroke-dashoffset: 0; stroke: #b0b0b0; stroke-opacity: 0.6; stroke-width: 0.7"/>
     </g>
     <g id="line2d_66">
      <g>
       <use xlink:href="#mdbf76c682c" x="668.446722" y="47.289424" style="stroke: #000000; stroke-width: 0.8"/>
      </g>
     </g>
    </g>
   </g>
   <g id="patch_12">
    <path d="M 694.506077 214.412902 
L 804.229676 214.412902 
L 804.229676 137.278989 
L 694.506077 137.278989 
L 694.506077 214.412902 
z
" clip-path="url(#p8247452f19)" style="fill: #124d82; stroke: #000000; stroke-linejoin: miter"/>
   </g>
   <g id="line2d_67">
    <path d="M 749.367876 214.412902 
L 749.367876 285.118989 
" clip-path="url(#p8247452f19)" style="fill: none; stroke: #000000"/>
   </g>
   <g id="line2d_68">
    <path d="M 749.367876 137.278989 
L 749.367876 53.71725 
" clip-path="url(#p8247452f19)" style="fill: none; stroke: #000000"/>
   </g>
   <g id="line2d_69">
    <path d="M 721.936976 285.118989 
L 776.798776 285.118989 
" clip-path="url(#p8247452f19)" style="fill: none; stroke: #000000; stroke-linecap: square"/>
   </g>
   <g id="line2d_70">
    <path d="M 721.936976 53.71725 
L 776.798776 53.71725 
" clip-path="url(#p8247452f19)" style="fill: none; stroke: #000000; stroke-linecap: square"/>
   </g>
   <g id="line2d_71"/>
   <g id="patch_13">
    <path d="M 831.660576 151.741598 
L 941.384175 151.741598 
L 941.384175 105.139859 
L 831.660576 105.139859 
L 831.660576 151.741598 
z
" clip-path="url(#p8247452f19)" style="fill: #124d82; stroke: #000000; stroke-linejoin: miter"/>
   </g>
   <g id="line2d_72">
    <path d="M 886.522375 151.741598 
L 886.522375 220.840728 
" clip-path="url(#p8247452f19)" style="fill: none; stroke: #000000"/>
   </g>
   <g id="line2d_73">
    <path d="M 886.522375 105.139859 
L 886.522375 53.71725 
" clip-path="url(#p8247452f19)" style="fill: none; stroke: #000000"/>
   </g>
   <g id="line2d_74">
    <path d="M 859.091476 220.840728 
L 913.953275 220.840728 
" clip-path="url(#p8247452f19)" style="fill: none; stroke: #000000; stroke-linecap: square"/>
   </g>
   <g id="line2d_75">
    <path d="M 859.091476 53.71725 
L 913.953275 53.71725 
" clip-path="url(#p8247452f19)" style="fill: none; stroke: #000000; stroke-linecap: square"/>
   </g>
   <g id="line2d_76"/>
   <g id="patch_14">
    <path d="M 968.815075 240.124207 
L 1078.538674 240.124207 
L 1078.538674 169.41812 
L 968.815075 169.41812 
L 968.815075 240.124207 
z
" clip-path="url(#p8247452f19)" style="fill: #124d82; stroke: #000000; stroke-linejoin: miter"/>
   </g>
   <g id="line2d_77">
    <path d="M 1023.676875 240.124207 
L 1023.676875 336.541598 
" clip-path="url(#p8247452f19)" style="fill: none; stroke: #000000"/>
   </g>
   <g id="line2d_78">
    <path d="M 1023.676875 169.41812 
L 1023.676875 105.139859 
" clip-path="url(#p8247452f19)" style="fill: none; stroke: #000000"/>
   </g>
   <g id="line2d_79">
    <path d="M 996.245975 336.541598 
L 1051.107774 336.541598 
" clip-path="url(#p8247452f19)" style="fill: none; stroke: #000000; stroke-linecap: square"/>
   </g>
   <g id="line2d_80">
    <path d="M 996.245975 105.139859 
L 1051.107774 105.139859 
" clip-path="url(#p8247452f19)" style="fill: none; stroke: #000000; stroke-linecap: square"/>
   </g>
   <g id="line2d_81">
    <g clip-path="url(#p8247452f19)">
     <use xlink:href="#m5c6ad6be00" x="1023.676875" y="355.825076" style="stroke: #000000"/>
     <use xlink:href="#m5c6ad6be00" x="1023.676875" y="349.39725" style="stroke: #000000"/>
     <use xlink:href="#m5c6ad6be00" x="1023.676875" y="349.39725" style="stroke: #000000"/>
     <use xlink:href="#m5c6ad6be00" x="1023.676875" y="349.39725" style="stroke: #000000"/>
     <use xlink:href="#m5c6ad6be00" x="1023.676875" y="349.39725" style="stroke: #000000"/>
     <use xlink:href="#m5c6ad6be00" x="1023.676875" y="349.39725" style="stroke: #000000"/>
    </g>
   </g>
   <g id="patch_15">
    <path d="M 1105.969574 439.386815 
L 1215.693173 439.386815 
L 1215.693173 310.830293 
L 1105.969574 310.830293 
L 1105.969574 439.386815 
z
" clip-path="url(#p8247452f19)" style="fill: #124d82; stroke: #000000; stroke-linejoin: miter"/>
   </g>
   <g id="line2d_82">
    <path d="M 1160.831374 439.386815 
L 1160.831374 458.670293 
" clip-path="url(#p8247452f19)" style="fill: none; stroke: #000000"/>
   </g>
   <g id="line2d_83">
    <path d="M 1160.831374 310.830293 
L 1160.831374 252.979859 
" clip-path="url(#p8247452f19)" style="fill: none; stroke: #000000"/>
   </g>
   <g id="line2d_84">
    <path d="M 1133.400474 458.670293 
L 1188.262274 458.670293 
" clip-path="url(#p8247452f19)" style="fill: none; stroke: #000000; stroke-linecap: square"/>
   </g>
   <g id="line2d_85">
    <path d="M 1133.400474 252.979859 
L 1188.262274 252.979859 
" clip-path="url(#p8247452f19)" style="fill: none; stroke: #000000; stroke-linecap: square"/>
   </g>
   <g id="line2d_86"/>
   <g id="line2d_87">
    <path d="M 694.506077 172.632033 
L 804.229676 172.632033 
" clip-path="url(#p8247452f19)" style="fill: none; stroke: #c80723; stroke-width: 2"/>
   </g>
   <g id="line2d_88">
    <path d="M 831.660576 130.851163 
L 941.384175 130.851163 
" clip-path="url(#p8247452f19)" style="fill: none; stroke: #c80723; stroke-width: 2"/>
   </g>
   <g id="line2d_89">
    <path d="M 968.815075 214.412902 
L 1078.538674 214.412902 
" clip-path="url(#p8247452f19)" style="fill: none; stroke: #c80723; stroke-width: 2"/>
   </g>
   <g id="line2d_90">
    <path d="M 1105.969574 387.964207 
L 1215.693173 387.964207 
" clip-path="url(#p8247452f19)" style="fill: none; stroke: #c80723; stroke-width: 2"/>
   </g>
   <g id="patch_16">
    <path d="M 668.446722 519.41325 
L 668.446722 31.54125 
" style="fill: none; stroke: #000000; stroke-linejoin: miter; stroke-linecap: square"/>
   </g>
   <g id="patch_17">
    <path d="M 1241.752528 519.41325 
L 1241.752528 31.54125 
" style="fill: none; stroke: #000000; stroke-linejoin: miter; stroke-linecap: square"/>
   </g>
   <g id="patch_18">
    <path d="M 668.446722 519.41325 
L 1241.752528 519.41325 
" style="fill: none; stroke: #000000; stroke-linejoin: miter; stroke-linecap: square"/>
   </g>
   <g id="patch_19">
    <path d="M 668.446722 31.54125 
L 1241.752528 31.54125 
" style="fill: none; stroke: #000000; stroke-linejoin: miter; stroke-linecap: square"/>
   </g>
   <g id="text_21">
    <!-- BA Network | N=1000 -->
    <g transform="translate(809.108375 25.54125) scale(0.24 -0.24)">
     <defs>
      <path id="DejaVuSans-Bold-42" d="M 2456 2859 
Q 2741 2859 2887 2984 
Q 3034 3109 3034 3353 
Q 3034 3594 2887 3720 
Q 2741 3847 2456 3847 
L 1791 3847 
L 1791 2859 
L 2456 2859 
z
M 2497 819 
Q 2859 819 3042 972 
Q 3225 1125 3225 1434 
Q 3225 1738 3044 1889 
Q 2863 2041 2497 2041 
L 1791 2041 
L 1791 819 
L 2497 819 
z
M 3616 2497 
Q 4003 2384 4215 2081 
Q 4428 1778 4428 1338 
Q 4428 663 3972 331 
Q 3516 0 2584 0 
L 588 0 
L 588 4666 
L 2394 4666 
Q 3366 4666 3802 4372 
Q 4238 4078 4238 3431 
Q 4238 3091 4078 2852 
Q 3919 2613 3616 2497 
z
" transform="scale(0.015625)"/>
     </defs>
     <use xlink:href="#DejaVuSans-Bold-42"/>
     <use xlink:href="#DejaVuSans-Bold-41" x="76.220703"/>
     <use xlink:href="#DejaVuSans-Bold-20" x="153.613281"/>
     <use xlink:href="#DejaVuSans-Bold-4e" x="188.427734"/>
     <use xlink:href="#DejaVuSans-Bold-65" x="272.119141"/>
     <use xlink:href="#DejaVuSans-Bold-74" x="339.941406"/>
     <use xlink:href="#DejaVuSans-Bold-77" x="387.744141"/>
     <use xlink:href="#DejaVuSans-Bold-6f" x="480.126953"/>
     <use xlink:href="#DejaVuSans-Bold-72" x="548.828125"/>
     <use xlink:href="#DejaVuSans-Bold-6b" x="598.144531"/>
     <use xlink:href="#DejaVuSans-Bold-20" x="664.648438"/>
     <use xlink:href="#DejaVuSans-Bold-7c" x="699.462891"/>
     <use xlink:href="#DejaVuSans-Bold-20" x="735.986328"/>
     <use xlink:href="#DejaVuSans-Bold-4e" x="770.800781"/>
     <use xlink:href="#DejaVuSans-Bold-3d" x="854.492188"/>
     <use xlink:href="#DejaVuSans-Bold-31" x="938.28125"/>
     <use xlink:href="#DejaVuSans-Bold-30" x="1007.861328"/>
     <use xlink:href="#DejaVuSans-Bold-30" x="1077.441406"/>
     <use xlink:href="#DejaVuSans-Bold-30" x="1147.021484"/>
    </g>
   </g>
   <g id="line2d_91">
    <path d="M 749.367876 413.514815 
L 886.522375 422.063824 
L 1023.676875 438.904728 
L 1160.831374 464.792033 
" clip-path="url(#p8247452f19)" style="fill: none; stroke: #ffbd00; stroke-width: 1.5; stroke-linecap: square"/>
    <g clip-path="url(#p8247452f19)">
     <use xlink:href="#mf4583209a1" x="749.367876" y="413.514815" style="fill: #ffbd00; stroke: #ffbd00; stroke-linejoin: miter"/>
     <use xlink:href="#mf4583209a1" x="886.522375" y="422.063824" style="fill: #ffbd00; stroke: #ffbd00; stroke-linejoin: miter"/>
     <use xlink:href="#mf4583209a1" x="1023.676875" y="438.904728" style="fill: #ffbd00; stroke: #ffbd00; stroke-linejoin: miter"/>
     <use xlink:href="#mf4583209a1" x="1160.831374" y="464.792033" style="fill: #ffbd00; stroke: #ffbd00; stroke-linejoin: miter"/>
    </g>
   </g>
   <g id="line2d_92">
    <path d="M 749.367876 90.741528 
L 886.522375 54.970676 
L 1023.676875 153.252137 
L 1160.831374 342.020554 
" clip-path="url(#p8247452f19)" style="fill: none; stroke: #d55b00; stroke-width: 1.5; stroke-linecap: square"/>
    <g clip-path="url(#p8247452f19)">
     <use xlink:href="#m74b0928446" x="749.367876" y="90.741528" style="fill: #d55b00; stroke: #d55b00; stroke-linejoin: miter"/>
     <use xlink:href="#m74b0928446" x="886.522375" y="54.970676" style="fill: #d55b00; stroke: #d55b00; stroke-linejoin: miter"/>
     <use xlink:href="#m74b0928446" x="1023.676875" y="153.252137" style="fill: #d55b00; stroke: #d55b00; stroke-linejoin: miter"/>
     <use xlink:href="#m74b0928446" x="1160.831374" y="342.020554" style="fill: #d55b00; stroke: #d55b00; stroke-linejoin: miter"/>
    </g>
   </g>
  </g>
  <g id="axes_3">
   <g id="patch_20">
    <path d="M 1270.417819 519.41325 
L 1843.723625 519.41325 
L 1843.723625 31.54125 
L 1270.417819 31.54125 
z
" style="fill: #ffffff"/>
   </g>
   <g id="matplotlib.axis_5">
    <g id="xtick_9">
     <g id="line2d_93">
      <g>
       <use xlink:href="#m8c65dd9481" x="1351.338973" y="519.41325" style="stroke: #000000; stroke-width: 0.8"/>
      </g>
     </g>
     <g id="text_22">
      <!-- 2~3.9 -->
      <g transform="translate(1321.592567 540.090437) scale(0.18 -0.18)">
       <use xlink:href="#DejaVuSans-Bold-32"/>
       <use xlink:href="#DejaVuSans-Bold-7e" x="69.580078"/>
       <use xlink:href="#DejaVuSans-Bold-33" x="153.369141"/>
       <use xlink:href="#DejaVuSans-Bold-2e" x="222.949219"/>
       <use xlink:href="#DejaVuSans-Bold-39" x="260.9375"/>
      </g>
     </g>
    </g>
    <g id="xtick_10">
     <g id="line2d_94">
      <g>
       <use xlink:href="#m8c65dd9481" x="1488.493472" y="519.41325" style="stroke: #000000; stroke-width: 0.8"/>
      </g>
     </g>
     <g id="text_23">
      <!-- 4~5.9 -->
      <g transform="translate(1458.747066 540.090437) scale(0.18 -0.18)">
       <use xlink:href="#DejaVuSans-Bold-34"/>
       <use xlink:href="#DejaVuSans-Bold-7e" x="69.580078"/>
       <use xlink:href="#DejaVuSans-Bold-35" x="153.369141"/>
       <use xlink:href="#DejaVuSans-Bold-2e" x="222.949219"/>
       <use xlink:href="#DejaVuSans-Bold-39" x="260.9375"/>
      </g>
     </g>
    </g>
    <g id="xtick_11">
     <g id="line2d_95">
      <g>
       <use xlink:href="#m8c65dd9481" x="1625.647971" y="519.41325" style="stroke: #000000; stroke-width: 0.8"/>
      </g>
     </g>
     <g id="text_24">
      <!-- 6~7.9 -->
      <g transform="translate(1595.901565 540.090437) scale(0.18 -0.18)">
       <use xlink:href="#DejaVuSans-Bold-36"/>
       <use xlink:href="#DejaVuSans-Bold-7e" x="69.580078"/>
       <use xlink:href="#DejaVuSans-Bold-37" x="153.369141"/>
       <use xlink:href="#DejaVuSans-Bold-2e" x="222.949219"/>
       <use xlink:href="#DejaVuSans-Bold-39" x="260.9375"/>
      </g>
     </g>
    </g>
    <g id="xtick_12">
     <g id="line2d_96">
      <g>
       <use xlink:href="#m8c65dd9481" x="1762.802471" y="519.41325" style="stroke: #000000; stroke-width: 0.8"/>
      </g>
     </g>
     <g id="text_25">
      <!-- 8~10 -->
      <g transform="translate(1736.474658 540.090437) scale(0.18 -0.18)">
       <use xlink:href="#DejaVuSans-Bold-38"/>
       <use xlink:href="#DejaVuSans-Bold-7e" x="69.580078"/>
       <use xlink:href="#DejaVuSans-Bold-31" x="153.369141"/>
       <use xlink:href="#DejaVuSans-Bold-30" x="222.949219"/>
      </g>
     </g>
    </g>
    <g id="text_26">
     <!-- Average Degree $\langle k \rangle$ Group -->
     <g transform="translate(1382.110722 566.073875) scale(0.24 -0.24)">
      <use xlink:href="#DejaVuSans-Bold-41" transform="translate(0 0.015625)"/>
      <use xlink:href="#DejaVuSans-Bold-76" transform="translate(77.392578 0.015625)"/>
      <use xlink:href="#DejaVuSans-Bold-65" transform="translate(142.578125 0.015625)"/>
      <use xlink:href="#DejaVuSans-Bold-72" transform="translate(210.400391 0.015625)"/>
      <use xlink:href="#DejaVuSans-Bold-61" transform="translate(259.716797 0.015625)"/>
      <use xlink:href="#DejaVuSans-Bold-67" transform="translate(327.197266 0.015625)"/>
      <use xlink:href="#DejaVuSans-Bold-65" transform="translate(398.779297 0.015625)"/>
      <use xlink:href="#DejaVuSans-Bold-20" transform="translate(466.601562 0.015625)"/>
      <use xlink:href="#DejaVuSans-Bold-44" transform="translate(501.416016 0.015625)"/>
      <use xlink:href="#DejaVuSans-Bold-65" transform="translate(584.423828 0.015625)"/>
      <use xlink:href="#DejaVuSans-Bold-67" transform="translate(652.246094 0.015625)"/>
      <use xlink:href="#DejaVuSans-Bold-72" transform="translate(723.828125 0.015625)"/>
      <use xlink:href="#DejaVuSans-Bold-65" transform="translate(773.144531 0.015625)"/>
      <use xlink:href="#DejaVuSans-Bold-65" transform="translate(840.966797 0.015625)"/>
      <use xlink:href="#DejaVuSans-Bold-20" transform="translate(908.789062 0.015625)"/>
      <use xlink:href="#DejaVuSans-27e8" transform="translate(943.603516 0.015625)"/>
      <use xlink:href="#DejaVuSans-Oblique-6b" transform="translate(982.617188 0.015625)"/>
      <use xlink:href="#DejaVuSans-27e9" transform="translate(1040.527344 0.015625)"/>
      <use xlink:href="#DejaVuSans-Bold-20" transform="translate(1079.541016 0.015625)"/>
      <use xlink:href="#DejaVuSans-Bold-47" transform="translate(1114.355469 0.015625)"/>
      <use xlink:href="#DejaVuSans-Bold-72" transform="translate(1196.435547 0.015625)"/>
      <use xlink:href="#DejaVuSans-Bold-6f" transform="translate(1245.751953 0.015625)"/>
      <use xlink:href="#DejaVuSans-Bold-75" transform="translate(1314.453125 0.015625)"/>
      <use xlink:href="#DejaVuSans-Bold-70" transform="translate(1385.644531 0.015625)"/>
     </g>
    </g>
   </g>
   <g id="matplotlib.axis_6">
    <g id="ytick_17">
     <g id="line2d_97">
      <path d="M 1270.417819 497.23725 
L 1843.723625 497.23725 
" clip-path="url(#p09b00214e9)" style="fill: none; stroke-dasharray: 2.59,1.12; stroke-dashoffset: 0; stroke: #b0b0b0; stroke-opacity: 0.6; stroke-width: 0.7"/>
     </g>
     <g id="line2d_98">
      <g>
       <use xlink:href="#mdbf76c682c" x="1270.417819" y="497.23725" style="stroke: #000000; stroke-width: 0.8"/>
      </g>
     </g>
    </g>
    <g id="ytick_18">
     <g id="line2d_99">
      <path d="M 1270.417819 432.958989 
L 1843.723625 432.958989 
" clip-path="url(#p09b00214e9)" style="fill: none; stroke-dasharray: 2.59,1.12; stroke-dashoffset: 0; stroke: #b0b0b0; stroke-opacity: 0.6; stroke-width: 0.7"/>
     </g>
     <g id="line2d_100">
      <g>
       <use xlink:href="#mdbf76c682c" x="1270.417819" y="432.958989" style="stroke: #000000; stroke-width: 0.8"/>
      </g>
     </g>
    </g>
    <g id="ytick_19">
     <g id="line2d_101">
      <path d="M 1270.417819 368.680728 
L 1843.723625 368.680728 
" clip-path="url(#p09b00214e9)" style="fill: none; stroke-dasharray: 2.59,1.12; stroke-dashoffset: 0; stroke: #b0b0b0; stroke-opacity: 0.6; stroke-width: 0.7"/>
     </g>
     <g id="line2d_102">
      <g>
       <use xlink:href="#mdbf76c682c" x="1270.417819" y="368.680728" style="stroke: #000000; stroke-width: 0.8"/>
      </g>
     </g>
    </g>
    <g id="ytick_20">
     <g id="line2d_103">
      <path d="M 1270.417819 304.402467 
L 1843.723625 304.402467 
" clip-path="url(#p09b00214e9)" style="fill: none; stroke-dasharray: 2.59,1.12; stroke-dashoffset: 0; stroke: #b0b0b0; stroke-opacity: 0.6; stroke-width: 0.7"/>
     </g>
     <g id="line2d_104">
      <g>
       <use xlink:href="#mdbf76c682c" x="1270.417819" y="304.402467" style="stroke: #000000; stroke-width: 0.8"/>
      </g>
     </g>
    </g>
    <g id="ytick_21">
     <g id="line2d_105">
      <path d="M 1270.417819 240.124207 
L 1843.723625 240.124207 
" clip-path="url(#p09b00214e9)" style="fill: none; stroke-dasharray: 2.59,1.12; stroke-dashoffset: 0; stroke: #b0b0b0; stroke-opacity: 0.6; stroke-width: 0.7"/>
     </g>
     <g id="line2d_106">
      <g>
       <use xlink:href="#mdbf76c682c" x="1270.417819" y="240.124207" style="stroke: #000000; stroke-width: 0.8"/>
      </g>
     </g>
    </g>
    <g id="ytick_22">
     <g id="line2d_107">
      <path d="M 1270.417819 175.845946 
L 1843.723625 175.845946 
" clip-path="url(#p09b00214e9)" style="fill: none; stroke-dasharray: 2.59,1.12; stroke-dashoffset: 0; stroke: #b0b0b0; stroke-opacity: 0.6; stroke-width: 0.7"/>
     </g>
     <g id="line2d_108">
      <g>
       <use xlink:href="#mdbf76c682c" x="1270.417819" y="175.845946" style="stroke: #000000; stroke-width: 0.8"/>
      </g>
     </g>
    </g>
    <g id="ytick_23">
     <g id="line2d_109">
      <path d="M 1270.417819 111.567685 
L 1843.723625 111.567685 
" clip-path="url(#p09b00214e9)" style="fill: none; stroke-dasharray: 2.59,1.12; stroke-dashoffset: 0; stroke: #b0b0b0; stroke-opacity: 0.6; stroke-width: 0.7"/>
     </g>
     <g id="line2d_110">
      <g>
       <use xlink:href="#mdbf76c682c" x="1270.417819" y="111.567685" style="stroke: #000000; stroke-width: 0.8"/>
      </g>
     </g>
    </g>
    <g id="ytick_24">
     <g id="line2d_111">
      <path d="M 1270.417819 47.289424 
L 1843.723625 47.289424 
" clip-path="url(#p09b00214e9)" style="fill: none; stroke-dasharray: 2.59,1.12; stroke-dashoffset: 0; stroke: #b0b0b0; stroke-opacity: 0.6; stroke-width: 0.7"/>
     </g>
     <g id="line2d_112">
      <g>
       <use xlink:href="#mdbf76c682c" x="1270.417819" y="47.289424" style="stroke: #000000; stroke-width: 0.8"/>
      </g>
     </g>
    </g>
   </g>
   <g id="patch_21">
    <path d="M 1296.477173 220.840728 
L 1406.200773 220.840728 
L 1406.200773 188.701598 
L 1296.477173 188.701598 
L 1296.477173 220.840728 
z
" clip-path="url(#p09b00214e9)" style="fill: #124d82; stroke: #000000; stroke-linejoin: miter"/>
   </g>
   <g id="line2d_113">
    <path d="M 1351.338973 220.840728 
L 1351.338973 265.835511 
" clip-path="url(#p09b00214e9)" style="fill: none; stroke: #000000"/>
   </g>
   <g id="line2d_114">
    <path d="M 1351.338973 188.701598 
L 1351.338973 143.706815 
" clip-path="url(#p09b00214e9)" style="fill: none; stroke: #000000"/>
   </g>
   <g id="line2d_115">
    <path d="M 1323.908073 265.835511 
L 1378.769873 265.835511 
" clip-path="url(#p09b00214e9)" style="fill: none; stroke: #000000; stroke-linecap: square"/>
   </g>
   <g id="line2d_116">
    <path d="M 1323.908073 143.706815 
L 1378.769873 143.706815 
" clip-path="url(#p09b00214e9)" style="fill: none; stroke: #000000; stroke-linecap: square"/>
   </g>
   <g id="line2d_117">
    <g clip-path="url(#p09b00214e9)">
     <use xlink:href="#m5c6ad6be00" x="1351.338973" y="130.851163" style="stroke: #000000"/>
     <use xlink:href="#m5c6ad6be00" x="1351.338973" y="137.278989" style="stroke: #000000"/>
    </g>
   </g>
   <g id="patch_22">
    <path d="M 1433.631673 342.969424 
L 1543.355272 342.969424 
L 1543.355272 233.69638 
L 1433.631673 233.69638 
L 1433.631673 342.969424 
z
" clip-path="url(#p09b00214e9)" style="fill: #124d82; stroke: #000000; stroke-linejoin: miter"/>
   </g>
   <g id="line2d_118">
    <path d="M 1488.493472 342.969424 
L 1488.493472 439.386815 
" clip-path="url(#p09b00214e9)" style="fill: none; stroke: #000000"/>
   </g>
   <g id="line2d_119">
    <path d="M 1488.493472 233.69638 
L 1488.493472 169.41812 
" clip-path="url(#p09b00214e9)" style="fill: none; stroke: #000000"/>
   </g>
   <g id="line2d_120">
    <path d="M 1461.062572 439.386815 
L 1515.924372 439.386815 
" clip-path="url(#p09b00214e9)" style="fill: none; stroke: #000000; stroke-linecap: square"/>
   </g>
   <g id="line2d_121">
    <path d="M 1461.062572 169.41812 
L 1515.924372 169.41812 
" clip-path="url(#p09b00214e9)" style="fill: none; stroke: #000000; stroke-linecap: square"/>
   </g>
   <g id="line2d_122"/>
   <g id="patch_23">
    <path d="M 1570.786172 458.670293 
L 1680.509771 458.670293 
L 1680.509771 413.675511 
L 1570.786172 413.675511 
L 1570.786172 458.670293 
z
" clip-path="url(#p09b00214e9)" style="fill: #124d82; stroke: #000000; stroke-linejoin: miter"/>
   </g>
   <g id="line2d_123">
    <path d="M 1625.647971 458.670293 
L 1625.647971 490.809424 
" clip-path="url(#p09b00214e9)" style="fill: none; stroke: #000000"/>
   </g>
   <g id="line2d_124">
    <path d="M 1625.647971 413.675511 
L 1625.647971 349.39725 
" clip-path="url(#p09b00214e9)" style="fill: none; stroke: #000000"/>
   </g>
   <g id="line2d_125">
    <path d="M 1598.217072 490.809424 
L 1653.078871 490.809424 
" clip-path="url(#p09b00214e9)" style="fill: none; stroke: #000000; stroke-linecap: square"/>
   </g>
   <g id="line2d_126">
    <path d="M 1598.217072 349.39725 
L 1653.078871 349.39725 
" clip-path="url(#p09b00214e9)" style="fill: none; stroke: #000000; stroke-linecap: square"/>
   </g>
   <g id="line2d_127"/>
   <g id="patch_24">
    <path d="M 1707.940671 490.809424 
L 1817.66427 490.809424 
L 1817.66427 465.09812 
L 1707.940671 465.09812 
L 1707.940671 490.809424 
z
" clip-path="url(#p09b00214e9)" style="fill: #124d82; stroke: #000000; stroke-linejoin: miter"/>
   </g>
   <g id="line2d_128">
    <path d="M 1762.802471 490.809424 
L 1762.802471 497.23725 
" clip-path="url(#p09b00214e9)" style="fill: none; stroke: #000000"/>
   </g>
   <g id="line2d_129">
    <path d="M 1762.802471 465.09812 
L 1762.802471 445.814641 
" clip-path="url(#p09b00214e9)" style="fill: none; stroke: #000000"/>
   </g>
   <g id="line2d_130">
    <path d="M 1735.371571 497.23725 
L 1790.23337 497.23725 
" clip-path="url(#p09b00214e9)" style="fill: none; stroke: #000000; stroke-linecap: square"/>
   </g>
   <g id="line2d_131">
    <path d="M 1735.371571 445.814641 
L 1790.23337 445.814641 
" clip-path="url(#p09b00214e9)" style="fill: none; stroke: #000000; stroke-linecap: square"/>
   </g>
   <g id="line2d_132"/>
   <g id="line2d_133">
    <path d="M 1296.477173 204.771163 
L 1406.200773 204.771163 
" clip-path="url(#p09b00214e9)" style="fill: none; stroke: #c80723; stroke-width: 2"/>
   </g>
   <g id="line2d_134">
    <path d="M 1433.631673 272.263337 
L 1543.355272 272.263337 
" clip-path="url(#p09b00214e9)" style="fill: none; stroke: #c80723; stroke-width: 2"/>
   </g>
   <g id="line2d_135">
    <path d="M 1570.786172 432.958989 
L 1680.509771 432.958989 
" clip-path="url(#p09b00214e9)" style="fill: none; stroke: #c80723; stroke-width: 2"/>
   </g>
   <g id="line2d_136">
    <path d="M 1707.940671 477.953772 
L 1817.66427 477.953772 
" clip-path="url(#p09b00214e9)" style="fill: none; stroke: #c80723; stroke-width: 2"/>
   </g>
   <g id="patch_25">
    <path d="M 1270.417819 519.41325 
L 1270.417819 31.54125 
" style="fill: none; stroke: #000000; stroke-linejoin: miter; stroke-linecap: square"/>
   </g>
   <g id="patch_26">
    <path d="M 1843.723625 519.41325 
L 1843.723625 31.54125 
" style="fill: none; stroke: #000000; stroke-linejoin: miter; stroke-linecap: square"/>
   </g>
   <g id="patch_27">
    <path d="M 1270.417819 519.41325 
L 1843.723625 519.41325 
" style="fill: none; stroke: #000000; stroke-linejoin: miter; stroke-linecap: square"/>
   </g>
   <g id="patch_28">
    <path d="M 1270.417819 31.54125 
L 1843.723625 31.54125 
" style="fill: none; stroke: #000000; stroke-linejoin: miter; stroke-linecap: square"/>
   </g>
   <g id="text_27">
    <!-- Hybrid Network | N=1000 -->
    <g transform="translate(1384.437597 25.54125) scale(0.24 -0.24)">
     <defs>
      <path id="DejaVuSans-Bold-48" d="M 588 4666 
L 1791 4666 
L 1791 2888 
L 3566 2888 
L 3566 4666 
L 4769 4666 
L 4769 0 
L 3566 0 
L 3566 1978 
L 1791 1978 
L 1791 0 
L 588 0 
L 588 4666 
z
" transform="scale(0.015625)"/>
      <path id="DejaVuSans-Bold-79" d="M 78 3500 
L 1197 3500 
L 2138 1125 
L 2938 3500 
L 4056 3500 
L 2584 -331 
Q 2363 -916 2067 -1148 
Q 1772 -1381 1288 -1381 
L 641 -1381 
L 641 -647 
L 991 -647 
Q 1275 -647 1404 -556 
Q 1534 -466 1606 -231 
L 1638 -134 
L 78 3500 
z
" transform="scale(0.015625)"/>
      <path id="DejaVuSans-Bold-62" d="M 2400 722 
Q 2759 722 2948 984 
Q 3138 1247 3138 1747 
Q 3138 2247 2948 2509 
Q 2759 2772 2400 2772 
Q 2041 2772 1848 2508 
Q 1656 2244 1656 1747 
Q 1656 1250 1848 986 
Q 2041 722 2400 722 
z
M 1656 2988 
Q 1888 3294 2169 3439 
Q 2450 3584 2816 3584 
Q 3463 3584 3878 3070 
Q 4294 2556 4294 1747 
Q 4294 938 3878 423 
Q 3463 -91 2816 -91 
Q 2450 -91 2169 54 
Q 1888 200 1656 506 
L 1656 0 
L 538 0 
L 538 4863 
L 1656 4863 
L 1656 2988 
z
" transform="scale(0.015625)"/>
      <path id="DejaVuSans-Bold-64" d="M 2919 2988 
L 2919 4863 
L 4044 4863 
L 4044 0 
L 2919 0 
L 2919 506 
Q 2688 197 2409 53 
Q 2131 -91 1766 -91 
Q 1119 -91 703 423 
Q 288 938 288 1747 
Q 288 2556 703 3070 
Q 1119 3584 1766 3584 
Q 2128 3584 2408 3439 
Q 2688 3294 2919 2988 
z
M 2181 722 
Q 2541 722 2730 984 
Q 2919 1247 2919 1747 
Q 2919 2247 2730 2509 
Q 2541 2772 2181 2772 
Q 1825 2772 1636 2509 
Q 1447 2247 1447 1747 
Q 1447 1247 1636 984 
Q 1825 722 2181 722 
z
" transform="scale(0.015625)"/>
     </defs>
     <use xlink:href="#DejaVuSans-Bold-48"/>
     <use xlink:href="#DejaVuSans-Bold-79" x="83.691406"/>
     <use xlink:href="#DejaVuSans-Bold-62" x="148.876953"/>
     <use xlink:href="#DejaVuSans-Bold-72" x="220.458984"/>
     <use xlink:href="#DejaVuSans-Bold-69" x="269.775391"/>
     <use xlink:href="#DejaVuSans-Bold-64" x="304.052734"/>
     <use xlink:href="#DejaVuSans-Bold-20" x="375.634766"/>
     <use xlink:href="#DejaVuSans-Bold-4e" x="410.449219"/>
     <use xlink:href="#DejaVuSans-Bold-65" x="494.140625"/>
     <use xlink:href="#DejaVuSans-Bold-74" x="561.962891"/>
     <use xlink:href="#DejaVuSans-Bold-77" x="609.765625"/>
     <use xlink:href="#DejaVuSans-Bold-6f" x="702.148438"/>
     <use xlink:href="#DejaVuSans-Bold-72" x="770.849609"/>
     <use xlink:href="#DejaVuSans-Bold-6b" x="820.166016"/>
     <use xlink:href="#DejaVuSans-Bold-20" x="886.669922"/>
     <use xlink:href="#DejaVuSans-Bold-7c" x="921.484375"/>
     <use xlink:href="#DejaVuSans-Bold-20" x="958.007812"/>
     <use xlink:href="#DejaVuSans-Bold-4e" x="992.822266"/>
     <use xlink:href="#DejaVuSans-Bold-3d" x="1076.513672"/>
     <use xlink:href="#DejaVuSans-Bold-31" x="1160.302734"/>
     <use xlink:href="#DejaVuSans-Bold-30" x="1229.882812"/>
     <use xlink:href="#DejaVuSans-Bold-30" x="1299.462891"/>
     <use xlink:href="#DejaVuSans-Bold-30" x="1369.042969"/>
    </g>
   </g>
   <g id="line2d_137">
    <path d="M 1351.338973 417.596485 
L 1488.493472 437.876276 
L 1625.647971 470.754607 
L 1762.802471 487.473076 
" clip-path="url(#p09b00214e9)" style="fill: none; stroke: #ffbd00; stroke-width: 1.5; stroke-linecap: square"/>
    <g clip-path="url(#p09b00214e9)">
     <use xlink:href="#mf4583209a1" x="1351.338973" y="417.596485" style="fill: #ffbd00; stroke: #ffbd00; stroke-linejoin: miter"/>
     <use xlink:href="#mf4583209a1" x="1488.493472" y="437.876276" style="fill: #ffbd00; stroke: #ffbd00; stroke-linejoin: miter"/>
     <use xlink:href="#mf4583209a1" x="1625.647971" y="470.754607" style="fill: #ffbd00; stroke: #ffbd00; stroke-linejoin: miter"/>
     <use xlink:href="#mf4583209a1" x="1762.802471" y="487.473076" style="fill: #ffbd00; stroke: #ffbd00; stroke-linejoin: miter"/>
    </g>
   </g>
   <g id="legend_1">
    <g id="patch_29">
     <path d="M 1687.903625 109.66125 
L 1833.923625 109.66125 
Q 1836.723625 109.66125 1836.723625 106.86125 
L 1836.723625 41.34125 
Q 1836.723625 38.54125 1833.923625 38.54125 
L 1687.903625 38.54125 
Q 1685.103625 38.54125 1685.103625 41.34125 
L 1685.103625 106.86125 
Q 1685.103625 109.66125 1687.903625 109.66125 
z
" style="fill: #ffffff; opacity: 0.8; stroke: #000000; stroke-linejoin: miter"/>
    </g>
    <g id="patch_30">
     <path d="M 1690.703625 58.14125 
L 1718.703625 58.14125 
L 1718.703625 48.34125 
L 1690.703625 48.34125 
z
" style="fill: #004e94; stroke: #000000; stroke-linejoin: miter"/>
    </g>
    <g id="text_28">
     <!-- $\Delta N_{D}^{opt}$ -->
     <g transform="translate(1729.903625 58.14125) scale(0.14 -0.14)">
      <defs>
       <path id="DejaVuSans-394" d="M 2188 4044 
L 906 525 
L 3472 525 
L 2188 4044 
z
M 50 0 
L 1831 4666 
L 2547 4666 
L 4325 0 
L 50 0 
z
" transform="scale(0.015625)"/>
       <path id="DejaVuSans-Oblique-4e" d="M 1081 4666 
L 1931 4666 
L 3219 666 
L 4000 4666 
L 4616 4666 
L 3706 0 
L 2853 0 
L 1569 4025 
L 788 0 
L 172 0 
L 1081 4666 
z
" transform="scale(0.015625)"/>
       <path id="DejaVuSans-Oblique-6f" d="M 1625 -91 
Q 1009 -91 651 289 
Q 294 669 294 1325 
Q 294 1706 417 2101 
Q 541 2497 738 2766 
Q 1047 3184 1428 3384 
Q 1809 3584 2291 3584 
Q 2888 3584 3255 3212 
Q 3622 2841 3622 2241 
Q 3622 1825 3500 1412 
Q 3378 1000 3181 728 
Q 2875 309 2494 109 
Q 2113 -91 1625 -91 
z
M 891 1344 
Q 891 869 1089 633 
Q 1288 397 1691 397 
Q 2269 397 2648 901 
Q 3028 1406 3028 2181 
Q 3028 2634 2825 2865 
Q 2622 3097 2228 3097 
Q 1903 3097 1650 2945 
Q 1397 2794 1197 2484 
Q 1050 2253 970 1956 
Q 891 1659 891 1344 
z
" transform="scale(0.015625)"/>
       <path id="DejaVuSans-Oblique-70" d="M 3175 2156 
Q 3175 2616 2975 2859 
Q 2775 3103 2400 3103 
Q 2144 3103 1911 2972 
Q 1678 2841 1497 2591 
Q 1319 2344 1212 1994 
Q 1106 1644 1106 1300 
Q 1106 863 1306 627 
Q 1506 391 1875 391 
Q 2147 391 2380 519 
Q 2613 647 2778 891 
Q 2956 1147 3065 1494 
Q 3175 1841 3175 2156 
z
M 1394 2969 
Q 1625 3272 1939 3428 
Q 2253 3584 2638 3584 
Q 3175 3584 3472 3232 
Q 3769 2881 3769 2247 
Q 3769 1728 3584 1258 
Q 3400 788 3053 416 
Q 2822 169 2531 39 
Q 2241 -91 1919 -91 
Q 1547 -91 1294 64 
Q 1041 219 916 525 
L 556 -1331 
L -19 -1331 
L 922 3500 
L 1497 3500 
L 1394 2969 
z
" transform="scale(0.015625)"/>
       <path id="DejaVuSans-Oblique-74" d="M 2706 3500 
L 2619 3053 
L 1472 3053 
L 1100 1153 
Q 1081 1047 1072 975 
Q 1063 903 1063 863 
Q 1063 663 1183 572 
Q 1303 481 1569 481 
L 2150 481 
L 2053 0 
L 1503 0 
Q 991 0 739 200 
Q 488 400 488 806 
Q 488 878 497 964 
Q 506 1050 525 1153 
L 897 3053 
L 409 3053 
L 500 3500 
L 978 3500 
L 1172 4494 
L 1747 4494 
L 1556 3500 
L 2706 3500 
z
" transform="scale(0.015625)"/>
       <path id="DejaVuSans-Oblique-44" d="M 1081 4666 
L 2438 4666 
Q 3519 4666 4070 4208 
Q 4622 3750 4622 2847 
Q 4622 2250 4412 1698 
Q 4203 1147 3834 769 
Q 3463 381 2891 190 
Q 2319 0 1538 0 
L 172 0 
L 1081 4666 
z
M 1613 4147 
L 909 519 
L 1734 519 
Q 2794 519 3375 1128 
Q 3956 1738 3956 2847 
Q 3956 3519 3581 3833 
Q 3206 4147 2406 4147 
L 1613 4147 
z
" transform="scale(0.015625)"/>
      </defs>
      <use xlink:href="#DejaVuSans-394" transform="translate(0 0.098438)"/>
      <use xlink:href="#DejaVuSans-Oblique-4e" transform="translate(68.408203 0.098438)"/>
      <use xlink:href="#DejaVuSans-Oblique-6f" transform="translate(150.229661 50.846875) scale(0.7)"/>
      <use xlink:href="#DejaVuSans-Oblique-70" transform="translate(193.05681 50.846875) scale(0.7)"/>
      <use xlink:href="#DejaVuSans-Oblique-74" transform="translate(237.490404 50.846875) scale(0.7)"/>
      <use xlink:href="#DejaVuSans-Oblique-44" transform="translate(143.212891 -27.245312) scale(0.7)"/>
     </g>
    </g>
    <g id="line2d_138">
     <path d="M 1690.703625 75.08125 
L 1704.703625 75.08125 
L 1718.703625 75.08125 
" style="fill: none; stroke: #d55b00; stroke-width: 1.5; stroke-linecap: square"/>
     <defs>
      <path id="m5bb82d6af2" d="M 0 -3 
L -3 3 
L 3 3 
z
" style="stroke: #d55b00; stroke-linejoin: miter"/>
     </defs>
     <g>
      <use xlink:href="#m5bb82d6af2" x="1704.703625" y="75.08125" style="fill: #d55b00; stroke: #d55b00; stroke-linejoin: miter"/>
     </g>
    </g>
    <g id="text_29">
     <!-- $\Delta N_D(CLAPS \mid \mathcal{I})$ -->
     <g transform="translate(1729.903625 79.98125) scale(0.14 -0.14)">
      <defs>
       <path id="DejaVuSans-28" d="M 1984 4856 
Q 1566 4138 1362 3434 
Q 1159 2731 1159 2009 
Q 1159 1288 1364 580 
Q 1569 -128 1984 -844 
L 1484 -844 
Q 1016 -109 783 600 
Q 550 1309 550 2009 
Q 550 2706 781 3412 
Q 1013 4119 1484 4856 
L 1984 4856 
z
" transform="scale(0.015625)"/>
       <path id="DejaVuSans-Oblique-4d" d="M 1081 4666 
L 2028 4666 
L 2572 1522 
L 4378 4666 
L 5350 4666 
L 4441 0 
L 3828 0 
L 4622 4091 
L 2791 897 
L 2175 897 
L 1581 4103 
L 788 0 
L 172 0 
L 1081 4666 
z
" transform="scale(0.015625)"/>
       <path id="DejaVuSans-Oblique-4f" d="M 2919 4238 
Q 2400 4238 2003 3986 
Q 1606 3734 1313 3219 
Q 1125 2891 1026 2522 
Q 928 2153 928 1778 
Q 928 1128 1239 775 
Q 1550 422 2119 422 
Q 2631 422 3032 676 
Q 3434 931 3719 1434 
Q 3909 1772 4009 2142 
Q 4109 2513 4109 2881 
Q 4109 3528 3796 3883 
Q 3484 4238 2919 4238 
z
M 2100 -91 
Q 1241 -91 748 418 
Q 256 928 256 1813 
Q 256 2319 448 2847 
Q 641 3375 978 3788 
Q 1375 4272 1862 4511 
Q 2350 4750 2938 4750 
Q 3794 4750 4287 4245 
Q 4781 3741 4781 2869 
Q 4781 2331 4593 1812 
Q 4406 1294 4056 872 
Q 3656 384 3173 146 
Q 2691 -91 2100 -91 
z
" transform="scale(0.015625)"/>
       <path id="DejaVuSans-Oblique-55" d="M 991 4666 
L 1625 4666 
L 1075 1831 
Q 1041 1641 1027 1517 
Q 1013 1394 1013 1300 
Q 1013 869 1253 645 
Q 1494 422 1959 422 
Q 2563 422 2898 753 
Q 3234 1084 3378 1831 
L 3928 4666 
L 4563 4666 
L 4000 1753 
Q 3816 809 3300 359 
Q 2784 -91 1888 -91 
Q 1188 -91 780 261 
Q 372 613 372 1216 
Q 372 1325 387 1461 
Q 403 1597 434 1753 
L 991 4666 
z
" transform="scale(0.015625)"/>
       <path id="DejaVuSans-Oblique-49" d="M 1081 4666 
L 1716 4666 
L 806 0 
L 172 0 
L 1081 4666 
z
" transform="scale(0.015625)"/>
       <path id="DejaVuSans-2223" d="M 1350 4934 
L 1850 4934 
L 1850 -1369 
L 1350 -1369 
L 1350 4934 
z
" transform="scale(0.015625)"/>
       <path id="STIXNonUnicode-Italic-e235" d="M 3782 4237 
L 3744 4083 
Q 3482 4083 3347 4067 
Q 3213 4051 3069 3977 
Q 2925 3904 2838 3753 
Q 2752 3603 2675 3334 
L 1920 710 
Q 1901 634 1901 557 
Q 1901 352 2208 352 
Q 2790 352 3283 819 
L 3398 698 
Q 3008 320 2566 160 
Q 2125 0 1549 0 
L 243 0 
L 282 154 
Q 467 154 556 160 
Q 646 166 777 201 
Q 909 237 982 310 
Q 1056 384 1139 521 
Q 1222 659 1280 870 
L 1946 3187 
Q 2061 3590 2061 3674 
Q 2061 3878 1754 3878 
Q 1523 3878 1203 3750 
Q 883 3622 678 3411 
L 570 3533 
Q 947 3904 1385 4070 
Q 1824 4237 2579 4237 
L 3782 4237 
z
" transform="scale(0.015625)"/>
       <path id="DejaVuSans-29" d="M 513 4856 
L 1013 4856 
Q 1481 4119 1714 3412 
Q 1947 2706 1947 2009 
Q 1947 1309 1714 600 
Q 1481 -109 1013 -844 
L 513 -844 
Q 928 -128 1133 580 
Q 1338 1288 1338 2009 
Q 1338 2731 1133 3434 
Q 928 4138 513 4856 
z
" transform="scale(0.015625)"/>
      </defs>
      <use xlink:href="#DejaVuSans-394" transform="translate(0 0.90625)"/>
      <use xlink:href="#DejaVuSans-Oblique-4e" transform="translate(68.408203 0.90625)"/>
      <use xlink:href="#DejaVuSans-Oblique-44" transform="translate(143.212891 -15.5) scale(0.7)"/>
      <use xlink:href="#DejaVuSans-28" transform="translate(199.848633 0.90625)"/>
      <use xlink:href="#DejaVuSans-Oblique-4d" transform="translate(238.862305 0.90625)"/>
      <use xlink:href="#DejaVuSans-Oblique-4f" transform="translate(325.141602 0.90625)"/>
      <use xlink:href="#DejaVuSans-Oblique-55" transform="translate(403.852539 0.90625)"/>
      <use xlink:href="#DejaVuSans-Oblique-49" transform="translate(477.045898 0.90625)"/>
      <use xlink:href="#DejaVuSans-2223" transform="translate(526.020508 0.90625)"/>
      <use xlink:href="#STIXNonUnicode-Italic-e235" transform="translate(595.50293 0.90625)"/>
      <use xlink:href="#DejaVuSans-29" transform="translate(653.002914 0.90625)"/>
     </g>
    </g>
    <g id="line2d_139">
     <path d="M 1690.703625 96.08125 
L 1704.703625 96.08125 
L 1718.703625 96.08125 
" style="fill: none; stroke: #ffbd00; stroke-width: 1.5; stroke-linecap: square"/>
     <defs>
      <path id="m522b4b2bc1" d="M -3 3 
L 3 3 
L 3 -3 
L -3 -3 
z
" style="stroke: #ffbd00; stroke-linejoin: miter"/>
     </defs>
     <g>
      <use xlink:href="#m522b4b2bc1" x="1704.703625" y="96.08125" style="fill: #ffbd00; stroke: #ffbd00; stroke-linejoin: miter"/>
     </g>
    </g>
    <g id="text_30">
     <!-- $\Delta N_D(RSU \mid \mathcal{I})$ -->
     <g transform="translate(1729.903625 100.98125) scale(0.14 -0.14)">
      <defs>
       <path id="DejaVuSans-Oblique-52" d="M 1613 4147 
L 1294 2491 
L 2106 2491 
Q 2584 2491 2879 2755 
Q 3175 3019 3175 3444 
Q 3175 3784 2976 3965 
Q 2778 4147 2406 4147 
L 1613 4147 
z
M 2772 2241 
Q 2972 2194 3105 2009 
Q 3238 1825 3413 1275 
L 3809 0 
L 3144 0 
L 2778 1197 
Q 2638 1659 2453 1815 
Q 2269 1972 1888 1972 
L 1191 1972 
L 806 0 
L 172 0 
L 1081 4666 
L 2503 4666 
Q 3150 4666 3495 4373 
Q 3841 4081 3841 3531 
Q 3841 3044 3547 2687 
Q 3253 2331 2772 2241 
z
" transform="scale(0.015625)"/>
      </defs>
      <use xlink:href="#DejaVuSans-394" transform="translate(0 0.90625)"/>
      <use xlink:href="#DejaVuSans-Oblique-4e" transform="translate(68.408203 0.90625)"/>
      <use xlink:href="#DejaVuSans-Oblique-44" transform="translate(143.212891 -15.5) scale(0.7)"/>
      <use xlink:href="#DejaVuSans-28" transform="translate(199.848633 0.90625)"/>
      <use xlink:href="#DejaVuSans-Oblique-52" transform="translate(238.862305 0.90625)"/>
      <use xlink:href="#DejaVuSans-Oblique-52" transform="translate(308.344727 0.90625)"/>
      <use xlink:href="#DejaVuSans-Oblique-4d" transform="translate(377.827148 0.90625)"/>
      <use xlink:href="#DejaVuSans-Oblique-55" transform="translate(464.106445 0.90625)"/>
      <use xlink:href="#DejaVuSans-2223" transform="translate(556.782227 0.90625)"/>
      <use xlink:href="#STIXNonUnicode-Italic-e235" transform="translate(626.264648 0.90625)"/>
      <use xlink:href="#DejaVuSans-29" transform="translate(683.764633 0.90625)"/>
     </g>
    </g>
   </g>
   <g id="line2d_140">
    <path d="M 1351.338973 124.744728 
L 1488.493472 226.497215 
L 1625.647971 405.92998 
L 1762.802471 465.526641 
" clip-path="url(#p09b00214e9)" style="fill: none; stroke: #d55b00; stroke-width: 1.5; stroke-linecap: square"/>
    <g clip-path="url(#p09b00214e9)">
     <use xlink:href="#m74b0928446" x="1351.338973" y="124.744728" style="fill: #d55b00; stroke: #d55b00; stroke-linejoin: miter"/>
     <use xlink:href="#m74b0928446" x="1488.493472" y="226.497215" style="fill: #d55b00; stroke: #d55b00; stroke-linejoin: miter"/>
     <use xlink:href="#m74b0928446" x="1625.647971" y="405.92998" style="fill: #d55b00; stroke: #d55b00; stroke-linejoin: miter"/>
     <use xlink:href="#m74b0928446" x="1762.802471" y="465.526641" style="fill: #d55b00; stroke: #d55b00; stroke-linejoin: miter"/>
    </g>
   </g>
  </g>
 </g>
 <defs>
  <clipPath id="p5df71dbaf9">
   <rect x="66.475625" y="31.54125" width="573.305806" height="487.872"/>
  </clipPath>
  <clipPath id="p8247452f19">
   <rect x="668.446722" y="31.54125" width="573.305806" height="487.872"/>
  </clipPath>
  <clipPath id="p09b00214e9">
   <rect x="1270.417819" y="31.54125" width="573.305806" height="487.872"/>
  </clipPath>
 </defs>
</svg>
